0
SECTION
2
HEADER
9
$ACADVER
1
AC1009
9
$DWGCODEPAGE
3
ANSI_949
9
$INSBASE
10
0.0
20
0.0
30
0.0
9
$EXTMIN
10
-5000.0
20
-10000.0
30
0.0
9
$EXTMAX
10
110000.0
20
210000.0
30
0.0
9
$LUNITS
70
2
9
$LUPREC
70
4
0
ENDSEC
0
SECTION
2
TABLES
0
TABLE
2
LTYPE
70
1
0
LTYPE
2
CONTINUOUS
70
0
3
Solid line
72
65
73
0
40
0.0
0
ENDTAB
0
TABLE
2
LAYER
70
7
0
LAYER
2
0
70
0
62
7
6
CONTINUOUS
0
LAYER
2
시험-선
70
0
62
1
6
CONTINUOUS
0
LAYER
2
시험-호
70
0
62
2
6
CONTINUOUS
0
LAYER
2
시험-원
70
0
62
3
6
CONTINUOUS
0
LAYER
2
시험-면적
70
0
62
4
6
CONTINUOUS
0
LAYER
2
시험-숫자
70
0
62
5
6
CONTINUOUS
0
LAYER
2
시험-좌표
70
0
62
6
6
CONTINUOUS
0
ENDTAB
0
TABLE
2
STYLE
70
1
0
STYLE
2
STANDARD
70
0
40
0.0
41
1.0
50
0.0
71
0
42
2.5
3
txt
4

0
ENDTAB
0
ENDSEC
0
SECTION
2
ENTITIES
0
LINE
8
시험-선
10
0
20
0
30
0.0
11
3000
21
4000
31
0.0
0
LINE
8
시험-선
10
0
20
0
30
0.0
11
0
21
1000
31
0.0
0
ARC
8
시험-호
10
0
20
0
30
0.0
40
1000
50
0
51
90
0
CIRCLE
8
시험-원
10
6000
20
0
30
0.0
40
500
0
POLYLINE
8
시험-면적
66
1
10
0.0
20
0.0
30
0.0
70
1
0
VERTEX
8
시험-면적
10
10000
20
0
30
0.0
42
0
0
VERTEX
8
시험-면적
10
13000
20
0
30
0.0
42
0
0
VERTEX
8
시험-면적
10
13000
20
2000
30
0.0
42
0
0
VERTEX
8
시험-면적
10
10000
20
2000
30
0.0
42
0
0
SEQEND
8
시험-면적
0
POLYLINE
8
시험-면적
66
1
10
0.0
20
0.0
30
0.0
70
1
0
VERTEX
8
시험-면적
10
16000
20
0
30
0.0
42
0
0
VERTEX
8
시험-면적
10
18000
20
0
30
0.0
42
0
0
VERTEX
8
시험-면적
10
18000
20
2000
30
0.0
42
0
0
VERTEX
8
시험-면적
10
16000
20
2000
30
0.0
42
1.0
0
SEQEND
8
시험-면적
0
TEXT
8
시험-숫자
10
0
20
-3000
30
0.0
40
200
1
1,234.5
0
TEXT
8
시험-숫자
10
0
20
-3400
30
0.0
40
200
1
100
0
TEXT
8
시험-숫자
10
0
20
-3800
30
0.0
40
200
1
L=12.5m
0
TEXT
8
시험-숫자
10
0
20
-4200
30
0.0
40
200
1
-4.5
0
TEXT
8
시험-숫자
10
0
20
-4600
30
0.0
40
200
1
합계
0
TEXT
8
시험-숫자
10
0
20
-5000
30
0.0
40
200
1
2026-09-14
0
POINT
8
시험-좌표
10
100000
20
200000
30
0.0
0
POINT
8
시험-좌표
10
100500
20
200300
30
0.0
0
POINT
8
시험-좌표
10
101000
20
200900
30
0.0
0
ENDSEC
0
EOF
