  0
SECTION
  2
HEADER
  9
$ACADVER
  1
AC1027
  9
$ACADMAINTVER
 70
105
  9
$DWGCODEPAGE
  3
ANSI_1252
  9
$LASTSAVEDBY
  1
ezdxf
  9
$REQUIREDVERSIONS
160
0
  9
$INSBASE
 10
0.0
 20
0.0
 30
0.0
  9
$EXTMIN
 10
1e+20
 20
1e+20
 30
1e+20
  9
$EXTMAX
 10
-1e+20
 20
-1e+20
 30
-1e+20
  9
$LIMMIN
 10
0.0
 20
0.0
  9
$LIMMAX
 10
420.0
 20
297.0
  9
$ORTHOMODE
 70
0
  9
$REGENMODE
 70
1
  9
$FILLMODE
 70
1
  9
$QTEXTMODE
 70
0
  9
$MIRRTEXT
 70
1
  9
$LTSCALE
 40
1.0
  9
$ATTMODE
 70
1
  9
$TEXTSIZE
 40
2.5
  9
$TRACEWID
 40
1.0
  9
$TEXTSTYLE
  7
Standard
  9
$CLAYER
  8
0
  9
$CELTYPE
  6
ByLayer
  9
$CECOLOR
 62
256
  9
$CELTSCALE
 40
1.0
  9
$DISPSILH
 70
0
  9
$DIMSCALE
 40
1.0
  9
$DIMASZ
 40
2.5
  9
$DIMEXO
 40
0.625
  9
$DIMDLI
 40
3.75
  9
$DIMRND
 40
0.0
  9
$DIMDLE
 40
0.0
  9
$DIMEXE
 40
1.25
  9
$DIMTP
 40
0.0
  9
$DIMTM
 40
0.0
  9
$DIMTXT
 40
2.5
  9
$DIMCEN
 40
2.5
  9
$DIMTSZ
 40
0.0
  9
$DIMTOL
 70
0
  9
$DIMLIM
 70
0
  9
$DIMTIH
 70
0
  9
$DIMTOH
 70
0
  9
$DIMSE1
 70
0
  9
$DIMSE2
 70
0
  9
$DIMTAD
 70
1
  9
$DIMZIN
 70
8
  9
$DIMBLK
  1

  9
$DIMASO
 70
1
  9
$DIMSHO
 70
1
  9
$DIMPOST
  1

  9
$DIMAPOST
  1

  9
$DIMALT
 70
0
  9
$DIMALTD
 70
3
  9
$DIMALTF
 40
0.03937007874
  9
$DIMLFAC
 40
1.0
  9
$DIMTOFL
 70
1
  9
$DIMTVP
 40
0.0
  9
$DIMTIX
 70
0
  9
$DIMSOXD
 70
0
  9
$DIMSAH
 70
0
  9
$DIMBLK1
  1

  9
$DIMBLK2
  1

  9
$DIMSTYLE
  2
ISO-25
  9
$DIMCLRD
 70
0
  9
$DIMCLRE
 70
0
  9
$DIMCLRT
 70
0
  9
$DIMTFAC
 40
1.0
  9
$DIMGAP
 40
0.625
  9
$DIMJUST
 70
0
  9
$DIMSD1
 70
0
  9
$DIMSD2
 70
0
  9
$DIMTOLJ
 70
0
  9
$DIMTZIN
 70
8
  9
$DIMALTZ
 70
0
  9
$DIMALTTZ
 70
0
  9
$DIMUPT
 70
0
  9
$DIMDEC
 70
2
  9
$DIMTDEC
 70
2
  9
$DIMALTU
 70
2
  9
$DIMALTTD
 70
3
  9
$DIMTXSTY
  7
Standard
  9
$DIMAUNIT
 70
0
  9
$DIMADEC
 70
0
  9
$DIMALTRND
 40
0.0
  9
$DIMAZIN
 70
0
  9
$DIMDSEP
 70
44
  9
$DIMATFIT
 70
3
  9
$DIMFRAC
 70
0
  9
$DIMLDRBLK
  1

  9
$DIMLUNIT
 70
2
  9
$DIMLWD
 70
-2
  9
$DIMLWE
 70
-2
  9
$DIMTMOVE
 70
0
  9
$DIMFXL
 40
1.0
  9
$DIMFXLON
 70
0
  9
$DIMJOGANG
 40
0.785398163397
  9
$DIMTFILL
 70
0
  9
$DIMTFILLCLR
 70
0
  9
$DIMARCSYM
 70
0
  9
$DIMLTYPE
  6

  9
$DIMLTEX1
  6

  9
$DIMLTEX2
  6

  9
$DIMTXTDIRECTION
 70
0
  9
$LUNITS
 70
2
  9
$LUPREC
 70
4
  9
$SKETCHINC
 40
1.0
  9
$FILLETRAD
 40
10.0
  9
$AUNITS
 70
0
  9
$AUPREC
 70
2
  9
$MENU
  1
.
  9
$ELEVATION
 40
0.0
  9
$PELEVATION
 40
0.0
  9
$THICKNESS
 40
0.0
  9
$LIMCHECK
 70
0
  9
$CHAMFERA
 40
0.0
  9
$CHAMFERB
 40
0.0
  9
$CHAMFERC
 40
0.0
  9
$CHAMFERD
 40
0.0
  9
$SKPOLY
 70
0
  9
$TDCREATE
 40
2461309.673263889
  9
$TDUCREATE
 40
2458532.153996898
  9
$TDUPDATE
 40
2461309.673263889
  9
$TDUUPDATE
 40
2458532.1544311
  9
$TDINDWG
 40
0.0
  9
$TDUSRTIMER
 40
0.0
  9
$USRTIMER
 70
1
  9
$ANGBASE
 50
0.0
  9
$ANGDIR
 70
0
  9
$PDMODE
 70
0
  9
$PDSIZE
 40
0.0
  9
$PLINEWID
 40
0.0
  9
$SPLFRAME
 70
0
  9
$SPLINETYPE
 70
6
  9
$SPLINESEGS
 70
8
  9
$HANDSEED
  5
93
  9
$SURFTAB1
 70
6
  9
$SURFTAB2
 70
6
  9
$SURFTYPE
 70
6
  9
$SURFU
 70
6
  9
$SURFV
 70
6
  9
$UCSBASE
  2

  9
$UCSNAME
  2

  9
$UCSORG
 10
0.0
 20
0.0
 30
0.0
  9
$UCSXDIR
 10
1.0
 20
0.0
 30
0.0
  9
$UCSYDIR
 10
0.0
 20
1.0
 30
0.0
  9
$UCSORTHOREF
  2

  9
$UCSORTHOVIEW
 70
0
  9
$UCSORGTOP
 10
0.0
 20
0.0
 30
0.0
  9
$UCSORGBOTTOM
 10
0.0
 20
0.0
 30
0.0
  9
$UCSORGLEFT
 10
0.0
 20
0.0
 30
0.0
  9
$UCSORGRIGHT
 10
0.0
 20
0.0
 30
0.0
  9
$UCSORGFRONT
 10
0.0
 20
0.0
 30
0.0
  9
$UCSORGBACK
 10
0.0
 20
0.0
 30
0.0
  9
$PUCSBASE
  2

  9
$PUCSNAME
  2

  9
$PUCSORG
 10
0.0
 20
0.0
 30
0.0
  9
$PUCSXDIR
 10
1.0
 20
0.0
 30
0.0
  9
$PUCSYDIR
 10
0.0
 20
1.0
 30
0.0
  9
$PUCSORTHOREF
  2

  9
$PUCSORTHOVIEW
 70
0
  9
$PUCSORGTOP
 10
0.0
 20
0.0
 30
0.0
  9
$PUCSORGBOTTOM
 10
0.0
 20
0.0
 30
0.0
  9
$PUCSORGLEFT
 10
0.0
 20
0.0
 30
0.0
  9
$PUCSORGRIGHT
 10
0.0
 20
0.0
 30
0.0
  9
$PUCSORGFRONT
 10
0.0
 20
0.0
 30
0.0
  9
$PUCSORGBACK
 10
0.0
 20
0.0
 30
0.0
  9
$USERI1
 70
0
  9
$USERI2
 70
0
  9
$USERI3
 70
0
  9
$USERI4
 70
0
  9
$USERI5
 70
0
  9
$USERR1
 40
0.0
  9
$USERR2
 40
0.0
  9
$USERR3
 40
0.0
  9
$USERR4
 40
0.0
  9
$USERR5
 40
0.0
  9
$WORLDVIEW
 70
1
  9
$SHADEDGE
 70
3
  9
$SHADEDIF
 70
70
  9
$TILEMODE
 70
1
  9
$MAXACTVP
 70
64
  9
$PINSBASE
 10
0.0
 20
0.0
 30
0.0
  9
$PLIMCHECK
 70
0
  9
$PEXTMIN
 10
1e+20
 20
1e+20
 30
1e+20
  9
$PEXTMAX
 10
-1e+20
 20
-1e+20
 30
-1e+20
  9
$PLIMMIN
 10
0.0
 20
0.0
  9
$PLIMMAX
 10
420.0
 20
297.0
  9
$UNITMODE
 70
0
  9
$VISRETAIN
 70
1
  9
$PLINEGEN
 70
0
  9
$PSLTSCALE
 70
1
  9
$TREEDEPTH
 70
3020
  9
$CMLSTYLE
  2
Standard
  9
$CMLJUST
 70
0
  9
$CMLSCALE
 40
20.0
  9
$PROXYGRAPHICS
 70
1
  9
$MEASUREMENT
 70
1
  9
$CELWEIGHT
370
-1
  9
$ENDCAPS
280
0
  9
$JOINSTYLE
280
0
  9
$LWDISPLAY
290
0
  9
$INSUNITS
 70
6
  9
$HYPERLINKBASE
  1

  9
$STYLESHEET
  1

  9
$XEDIT
290
1
  9
$CEPSNTYPE
380
0
  9
$PSTYLEMODE
290
1
  9
$FINGERPRINTGUID
  2
{4AB03C21-E46D-48F8-BE5A-46AED3C15611}
  9
$VERSIONGUID
  2
{2E3813BC-A48D-48F3-BC0B-5F0129D2CE79}
  9
$EXTNAMES
290
1
  9
$PSVPSCALE
 40
0.0
  9
$OLESTARTUP
290
0
  9
$SORTENTS
280
127
  9
$INDEXCTL
280
0
  9
$HIDETEXT
280
1
  9
$XCLIPFRAME
280
1
  9
$HALOGAP
280
0
  9
$OBSCOLOR
 70
257
  9
$OBSLTYPE
280
0
  9
$INTERSECTIONDISPLAY
280
0
  9
$INTERSECTIONCOLOR
 70
257
  9
$DIMASSOC
280
2
  9
$PROJECTNAME
  1

  9
$CAMERADISPLAY
290
0
  9
$LENSLENGTH
 40
50.0
  9
$CAMERAHEIGHT
 40
0.0
  9
$STEPSPERSEC
 40
24.0
  9
$STEPSIZE
 40
100.0
  9
$3DDWFPREC
 40
2.0
  9
$PSOLWIDTH
 40
0.005
  9
$PSOLHEIGHT
 40
0.08
  9
$LOFTANG1
 40
1.570796326795
  9
$LOFTANG2
 40
1.570796326795
  9
$LOFTMAG1
 40
0.0
  9
$LOFTMAG2
 40
0.0
  9
$LOFTPARAM
 70
7
  9
$LOFTNORMALS
280
1
  9
$LATITUDE
 40
37.795
  9
$LONGITUDE
 40
-122.394
  9
$NORTHDIRECTION
 40
0.0
  9
$TIMEZONE
 70
-8000
  9
$LIGHTGLYPHDISPLAY
280
1
  9
$TILEMODELIGHTSYNCH
280
1
  9
$CMATERIAL
347
20
  9
$SOLIDHIST
280
0
  9
$SHOWHIST
280
1
  9
$DWFFRAME
280
2
  9
$DGNFRAME
280
2
  9
$REALWORLDSCALE
290
1
  9
$INTERFERECOLOR
 62
256
  9
$CSHADOW
280
0
  9
$SHADOWPLANELOCATION
 40
0.0
  0
ENDSEC
  0
SECTION
  2
CLASSES
  0
CLASS
  1
ACDBDICTIONARYWDFLT
  2
AcDbDictionaryWithDefault
  3
ObjectDBX Classes
 90
0
 91
0
280
0
281
0
  0
CLASS
  1
SUN
  2
AcDbSun
  3
SCENEOE
 90
1153
 91
0
280
0
281
0
  0
CLASS
  1
VISUALSTYLE
  2
AcDbVisualStyle
  3
ObjectDBX Classes
 90
4095
 91
0
280
0
281
0
  0
CLASS
  1
MATERIAL
  2
AcDbMaterial
  3
ObjectDBX Classes
 90
1153
 91
0
280
0
281
0
  0
CLASS
  1
SCALE
  2
AcDbScale
  3
ObjectDBX Classes
 90
1153
 91
0
280
0
281
0
  0
CLASS
  1
TABLESTYLE
  2
AcDbTableStyle
  3
ObjectDBX Classes
 90
4095
 91
0
280
0
281
0
  0
CLASS
  1
MLEADERSTYLE
  2
AcDbMLeaderStyle
  3
ACDB_MLEADERSTYLE_CLASS
 90
4095
 91
0
280
0
281
0
  0
CLASS
  1
DICTIONARYVAR
  2
AcDbDictionaryVar
  3
ObjectDBX Classes
 90
0
 91
0
280
0
281
0
  0
CLASS
  1
CELLSTYLEMAP
  2
AcDbCellStyleMap
  3
ObjectDBX Classes
 90
1152
 91
0
280
0
281
0
  0
CLASS
  1
MENTALRAYRENDERSETTINGS
  2
AcDbMentalRayRenderSettings
  3
SCENEOE
 90
1024
 91
0
280
0
281
0
  0
CLASS
  1
ACDBDETAILVIEWSTYLE
  2
AcDbDetailViewStyle
  3
ObjectDBX Classes
 90
1025
 91
0
280
0
281
0
  0
CLASS
  1
ACDBSECTIONVIEWSTYLE
  2
AcDbSectionViewStyle
  3
ObjectDBX Classes
 90
1025
 91
0
280
0
281
0
  0
CLASS
  1
RASTERVARIABLES
  2
AcDbRasterVariables
  3
ISM
 90
0
 91
0
280
0
281
0
  0
CLASS
  1
LAYOUT
  2
AcDbLayout
  3
ObjectDBX Classes
 90
0
 91
0
280
0
281
0
  0
CLASS
  1
ACDBPLACEHOLDER
  2
AcDbPlaceHolder
  3
ObjectDBX Classes
 90
0
 91
0
280
0
281
0
  0
ENDSEC
  0
SECTION
  2
TABLES
  0
TABLE
  2
VPORT
  5
8
330
0
100
AcDbSymbolTable
 70
1
  0
VPORT
  5
23
330
8
100
AcDbSymbolTableRecord
100
AcDbViewportTableRecord
  2
*Active
 70
0
 10
0.0
 20
0.0
 11
1.0
 21
1.0
 12
0.0
 22
0.0
 13
0.0
 23
0.0
 14
0.5
 24
0.5
 15
0.5
 25
0.5
 16
0.0
 26
0.0
 36
1.0
 17
0.0
 27
0.0
 37
0.0
 40
1000.0
 41
1.34
 42
50.0
 43
0.0
 44
0.0
 50
0.0
 51
0.0
 71
0
 72
1000
 73
1
 74
3
 75
0
 76
0
 77
0
 78
0
281
0
 65
0
146
0.0
  0
ENDTAB
  0
TABLE
  2
LTYPE
  5
2
330
0
100
AcDbSymbolTable
 70
3
  0
LTYPE
  5
24
330
2
100
AcDbSymbolTableRecord
100
AcDbLinetypeTableRecord
  2
ByBlock
 70
0
  3

 72
65
 73
0
 40
0.0
  0
LTYPE
  5
25
330
2
100
AcDbSymbolTableRecord
100
AcDbLinetypeTableRecord
  2
ByLayer
 70
0
  3

 72
65
 73
0
 40
0.0
  0
LTYPE
  5
26
330
2
100
AcDbSymbolTableRecord
100
AcDbLinetypeTableRecord
  2
Continuous
 70
0
  3

 72
65
 73
0
 40
0.0
  0
ENDTAB
  0
TABLE
  2
LAYER
  5
1
330
0
100
AcDbSymbolTable
 70
6
  0
LAYER
  5
27
330
1
100
AcDbSymbolTableRecord
100
AcDbLayerTableRecord
  2
0
 70
0
 62
7
  6
Continuous
370
-3
390
13
347
21
  0
LAYER
  5
28
330
1
100
AcDbSymbolTableRecord
100
AcDbLayerTableRecord
  2
Defpoints
 70
0
 62
7
  6
Continuous
290
0
370
-3
390
13
347
21
  0
LAYER
  5
2F
330
1
100
AcDbSymbolTableRecord
100
AcDbLayerTableRecord
  2
등고선-주곡선
 70
0
 62
3
  6
Continuous
370
-3
390
13
347
21
  0
LAYER
  5
30
330
1
100
AcDbSymbolTableRecord
100
AcDbLayerTableRecord
  2
등고선-계곡선
 70
0
 62
2
  6
Continuous
370
-3
390
13
347
21
  0
LAYER
  5
31
330
1
100
AcDbSymbolTableRecord
100
AcDbLayerTableRecord
  2
도로중심
 70
0
 62
1
  6
Continuous
370
-3
390
13
347
21
  0
LAYER
  5
32
330
1
100
AcDbSymbolTableRecord
100
AcDbLayerTableRecord
  2
표고점
 70
0
 62
4
  6
Continuous
370
-3
390
13
347
21
  0
ENDTAB
  0
TABLE
  2
STYLE
  5
5
330
0
100
AcDbSymbolTable
 70
1
  0
STYLE
  5
29
330
5
100
AcDbSymbolTableRecord
100
AcDbTextStyleTableRecord
  2
Standard
 70
0
 40
0.0
 41
1.0
 50
0.0
 71
0
 42
2.5
  3
txt
  4

  0
ENDTAB
  0
TABLE
  2
VIEW
  5
7
330
0
100
AcDbSymbolTable
 70
0
  0
ENDTAB
  0
TABLE
  2
UCS
  5
6
330
0
100
AcDbSymbolTable
 70
0
  0
ENDTAB
  0
TABLE
  2
APPID
  5
3
330
0
100
AcDbSymbolTable
 70
3
  0
APPID
  5
2A
330
3
100
AcDbSymbolTableRecord
100
AcDbRegAppTableRecord
  2
ACAD
 70
0
  0
APPID
  5
90
330
3
100
AcDbSymbolTableRecord
100
AcDbRegAppTableRecord
  2
HATCHBACKGROUNDCOLOR
 70
0
  0
APPID
  5
91
330
3
100
AcDbSymbolTableRecord
100
AcDbRegAppTableRecord
  2
EZDXF
 70
0
  0
ENDTAB
  0
TABLE
  2
DIMSTYLE
  5
4
330
0
100
AcDbSymbolTable
 70
1
100
AcDbDimStyleTable
  0
DIMSTYLE
105
2B
330
4
100
AcDbSymbolTableRecord
100
AcDbDimStyleTableRecord
  2
Standard
 70
0
 40
1.0
 41
2.5
 42
0.625
 43
3.75
 44
1.25
 45
0.0
 46
0.0
 47
0.0
 48
0.0
 49
2.5
140
2.5
141
2.5
142
0.0
143
0.03937007874
144
1.0
145
0.0
146
1.0
147
0.625
148
0.0
 69
0
 70
0
 71
0
 72
0
 73
0
 74
0
 75
0
 76
0
 77
1
 78
8
 79
3
170
0
171
3
172
1
173
0
174
0
175
0
176
0
177
0
178
0
179
2
271
2
272
2
273
2
274
3
275
0
276
0
277
2
278
44
279
0
280
0
281
0
282
0
283
0
284
8
285
0
286
0
288
0
289
3
290
0
371
-2
372
-2
  0
ENDTAB
  0
TABLE
  2
BLOCK_RECORD
  5
9
330
0
100
AcDbSymbolTable
 70
2
  0
BLOCK_RECORD
  5
17
330
9
100
AcDbSymbolTableRecord
100
AcDbBlockTableRecord
  2
*Model_Space
340
1A
 70
0
280
1
281
0
  0
BLOCK_RECORD
  5
1B
330
9
100
AcDbSymbolTableRecord
100
AcDbBlockTableRecord
  2
*Paper_Space
340
1E
 70
0
280
1
281
0
  0
ENDTAB
  0
ENDSEC
  0
SECTION
  2
BLOCKS
  0
BLOCK
  5
18
330
17
100
AcDbEntity
  8
0
100
AcDbBlockBegin
  2
*Model_Space
 70
0
 10
0.0
 20
0.0
 30
0.0
  3
*Model_Space
  1

  0
ENDBLK
  5
19
330
17
100
AcDbEntity
  8
0
100
AcDbBlockEnd
  0
BLOCK
  5
1C
330
1B
100
AcDbEntity
  8
0
100
AcDbBlockBegin
  2
*Paper_Space
 70
0
 10
0.0
 20
0.0
 30
0.0
  3
*Paper_Space
  1

  0
ENDBLK
  5
1D
330
1B
100
AcDbEntity
  8
0
100
AcDbBlockEnd
  0
ENDSEC
  0
SECTION
  2
ENTITIES
  0
LWPOLYLINE
  5
33
330
17
100
AcDbEntity
  8
등고선-주곡선
100
AcDbPolyline
 90
19
 70
0
 38
2.0
 10
0.0
 20
51.570968977643886
 10
1.180847375038214
 20
48.0
 10
2.0
 20
45.68021495343382
 10
3.3354136547861177
 20
42.0
 10
4.1018090760945976
 20
40.0
 10
5.679675534335779
 20
36.0
 10
6.49838489326162
 20
34.0
 10
8.0
 20
30.467184021145094
 10
9.074314490869835
 20
28.0
 10
10.0
 20
25.95239778632205
 10
11.82099935114795
 20
22.0
 10
12.763565693849612
 20
20.0
 10
14.0
 20
17.443106386184954
 10
15.697916619019257
 20
14.0
 10
16.699010851915762
 20
12.0
 10
18.0
 20
9.442686889029568
 10
19.777471259090678
 20
6.0
 10
20.816244420327482
 20
4.0
 10
22.0
 20
1.7455448264815445
  0
LWPOLYLINE
  5
34
330
17
100
AcDbEntity
  8
등고선-주곡선
100
AcDbPolyline
 90
40
 70
0
 38
2.0
 10
46.706966501255984
 20
280.0
 10
46.0
 20
276.1967199709948
 10
45.542481873224936
 20
274.0
 10
44.604348591661
 20
270.0
 10
44.0
 20
267.6997557972638
 10
42.936113143454335
 20
264.0
 10
42.0
 20
261.07448989398813
 10
40.946324604065296
 20
258.0
 10
40.0
 20
255.45029089559065
 10
38.64418341273377
 20
252.0
 10
37.812872853760375
 20
250.0
 10
36.06079704210094
 20
246.0
 10
35.14214431372805
 20
244.0
 10
34.0
 20
241.58486141808422
 10
32.25756293265377
 20
238.0
 10
31.256370268725824
 20
236.0
 10
30.0
 20
233.53272917034366
 10
28.179642095708306
 20
230.0
 10
27.131928091253915
 20
228.0
 10
26.0
 20
225.8420469532092
 10
24.0
 20
222.04639893638077
 10
22.916507870474923
 20
220.0
 10
21.868116736147076
 20
218.0
 10
20.0
 20
214.43233073831468
 10
18.739786360431395
 20
212.0
 10
17.71699336172892
 20
210.0
 10
16.0
 20
206.6068122957378
 10
14.704060769559172
 20
204.0
 10
13.72984600228106
 20
202.0
 10
12.0
 20
198.3808665315601
 10
10.884867799013334
 20
196.0
 10
9.97844603065391
 20
194.0
 10
8.201425968913865
 20
190.0
 10
7.3375257457306535
 20
188.0
 10
6.0
 20
184.78007214969796
 10
4.874805458347537
 20
182.0
 10
4.0
 20
179.73226637228527
 10
2.596794856320357
 20
176.0
 10
1.8850756746513835
 20
174.0
 10
0.5076274306977919
 20
170.0
  0
LWPOLYLINE
  5
35
330
17
100
AcDbEntity
  8
등고선-주곡선
100
AcDbPolyline
 90
104
 70
0
 38
4.0
 10
92.91145874177796
 20
280.0
 10
92.0
 20
277.6989566700148
 10
90.36104539558761
 20
274.0
 10
89.37014959685114
 20
272.0
 10
88.0
 20
269.4708752095421
 10
86.0
 20
266.08141652302277
 10
84.6647868002636
 20
264.0
 10
83.30502938951891
 20
262.0
 10
81.87483707917853
 20
260.0
 10
80.0
 20
257.5214700409147
 10
78.0
 20
254.9939326583958
 10
76.0
 20
252.56001198625827
 10
74.0
 20
250.2013432059885
 10
72.08324033339275
 20
248.0
 10
70.30262542899847
 20
246.0
 10
68.49653801128484
 20
244.0
 10
66.67158385878868
 20
242.0
 10
64.83411813909528
 20
240.0
 10
62.99015844461775
 20
238.0
 10
61.145322073389195
 20
236.0
 10
59.30478680662491
 20
234.0
 10
57.47327321928424
 20
232.0
 10
55.65504573730405
 20
230.0
 10
53.853929207646615
 20
228.0
 10
52.0
 20
225.91979592768706
 10
50.0
 20
223.64767246122193
 10
48.0
 20
221.33441190458336
 10
46.0
 20
218.97330600318395
 10
44.0
 20
216.55720575403342
 10
42.0
 20
214.07839717250985
 10
40.35488515093496
 20
212.0
 10
38.80496207908006
 20
210.0
 10
37.290902604384776
 20
208.0
 10
35.8140999973992
 20
206.0
 10
34.0
 20
203.48598658378768
 10
32.0
 20
200.6147785160179
 10
30.244381565365906
 20
198.0
 10
28.935946681690552
 20
196.0
 10
27.668965006692495
 20
194.0
 10
26.0
 20
191.28399113345594
 10
24.07019844467377
 20
188.0
 10
22.931484493755114
 20
186.0
 10
21.83864307760908
 20
184.0
 10
20.0
 20
180.50409385901767
 10
18.738448775275067
 20
178.0
 10
17.77721607614239
 20
176.0
 10
16.0
 20
172.12263596429287
 10
15.06693650376699
 20
170.0
 10
14.0
 20
167.41828824595208
 10
12.646470562404135
 20
164.0
 10
11.907984398998886
 20
162.0
 10
10.50196079730542
 20
158.0
 10
9.851846504841209
 20
156.0
 10
8.623980400416242
 20
152.0
 10
8.0
 20
149.7562924235874
 10
7.008289965101463
 20
146.0
 10
6.08483961933952
 20
142.0
 10
5.656378272904606
 20
140.0
 10
4.887729270004469
 20
136.0
 10
4.241617219266851
 20
132.0
 10
3.9608515565030897
 20
130.0
 10
3.4650686866375295
 20
126.0
 10
3.0840893700920367
 20
122.0
 10
2.8144419433800603
 20
118.0
 10
2.6536456914550612
 20
114.0
 10
2.600212291812986
 20
110.0
 10
2.6536457030068816
 20
106.0
 10
2.8144419671690115
 20
102.0
 10
3.0840894075043876
 20
98.0
 10
3.4650687397905964
 20
94.0
 10
3.960851628287286
 20
90.0
 10
4.241617298754479
 20
88.0
 10
4.887729375652836
 20
84.0
 10
5.656378410969063
 20
80.0
 10
6.084839769963931
 20
78.0
 10
7.008290164761181
 20
74.0
 10
8.0
 20
70.24370849930848
 10
8.623980690668361
 20
68.0
 10
9.851846889247591
 20
64.0
 10
10.501961226712195
 20
62.0
 10
11.90798497500957
 20
58.0
 10
12.64647121256626
 20
56.0
 10
14.0
 20
52.58171378338429
 10
15.066937510518864
 20
50.0
 10
16.0
 20
47.87736666940309
 10
17.777217661407263
 20
44.0
 10
18.73845060116775
 20
42.0
 10
20.0
 20
39.4959104787793
 10
21.83864604717956
 20
36.0
 10
22.9314879629038
 20
34.0
 10
24.070202452508102
 20
32.0
 10
26.0
 20
28.716017703158283
 10
27.668971858691556
 20
26.0
 10
28.93595479497897
 20
24.0
 10
30.244391116348993
 20
22.0
 10
32.0
 20
19.385239341480627
 10
34.0
 20
16.51403540357057
 10
35.81412009083094
 20
14.0
 10
37.29092680570343
 20
12.0
 10
38.8049911799458
 20
10.0
 10
40.35492009448189
 20
8.0
 10
42.0
 20
5.921657358372575
 10
44.0
 20
3.4428609492976747
 10
46.0
 20
1.0267754710641324
  0
LWPOLYLINE
  5
36
330
17
100
AcDbEntity
  8
등고선-주곡선
100
AcDbPolyline
 90
118
 70
0
 38
6.0
 10
142.4725984367887
 20
280.0
 10
141.53460317050255
 20
278.0
 10
140.0
 20
275.1570443098562
 10
138.03440198571388
 20
272.0
 10
136.6034330748785
 20
270.0
 10
135.01983687743189
 20
268.0
 10
133.2728538586926
 20
266.0
 10
131.35308532264233
 20
264.0
 10
129.25322172578768
 20
262.0
 10
126.96882970414218
 20
260.0
 10
124.49913886680825
 20
258.0
 10
122.0
 20
256.1150357494577
 10
120.0
 20
254.6912004854669
 10
118.0
 20
253.30745630872283
 10
116.0
 20
251.9510476796215
 10
113.00088705505266
 20
250.0
 10
110.0
 20
248.11569359861895
 10
108.0
 20
246.89034600066236
 10
106.0
 20
245.65340211658327
 10
103.31679424900238
 20
244.0
 10
100.03581067600466
 20
242.0
 10
98.0
 20
240.76938146710197
 10
96.0
 20
239.53213070166717
 10
93.5618731876962
 20
238.0
 10
90.39718849566474
 20
236.0
 10
88.0
 20
234.47002889851277
 10
86.0
 20
233.16423822734785
 10
84.0
 20
231.82127764691367
 10
81.33496171307402
 20
230.0
 10
78.47669959515729
 20
228.0
 10
76.0
 20
226.22301136744457
 10
74.0
 20
224.7525309021927
 10
72.0
 20
223.23801960548687
 10
70.0
 20
221.67924324901205
 10
67.90378042256464
 20
220.0
 10
65.47157085871214
 20
218.0
 10
63.11974006692297
 20
216.0
 10
60.846407380003576
 20
214.0
 10
58.6493584190719
 20
212.0
 10
56.52619221880139
 20
210.0
 10
54.47444423976181
 20
208.0
 10
52.4916872536453
 20
206.0
 10
50.57561260707958
 20
204.0
 10
48.72409458132666
 20
202.0
 10
46.93524055957629
 20
200.0
 10
45.20742956578172
 20
198.0
 10
43.5393415072138
 20
196.0
 10
41.92997917980863
 20
194.0
 10
40.0
 20
191.51423361362097
 10
38.0
 20
188.81435237822328
 10
36.01967846929758
 20
186.0
 10
34.66346288037849
 20
184.0
 10
33.360480363938215
 20
182.0
 10
32.0
 20
179.82225815853448
 10
30.0
 20
176.46509525663117
 10
28.605921613911768
 20
174.0
 10
27.527331793341734
 20
172.0
 10
26.0
 20
169.01731451831046
 10
24.535645543499434
 20
166.0
 10
23.619827636109093
 20
164.0
 10
22.0
 20
160.22701482949847
 10
21.09417697888566
 20
158.0
 10
20.0
 20
155.08530037693447
 10
18.90329551788249
 20
152.0
 10
18.0
 20
149.19395273493427
 10
17.029885779883198
 20
146.0
 10
16.0
 20
142.14791504137196
 10
15.46486785493798
 20
140.0
 10
14.584966258310535
 20
136.0
 10
14.0
 20
132.87402249319157
 10
13.50928872183659
 20
130.0
 10
12.947748632956086
 20
126.0
 10
12.517033963543804
 20
122.0
 10
12.2126017349498
 20
118.0
 10
12.031226680008848
 20
114.0
 10
11.985405462011371
 20
112.0
 10
11.985405482726076
 20
108.0
 10
12.031226719987005
 20
106.0
 10
12.212601817747943
 20
102.0
 10
12.517034094926597
 20
98.0
 10
12.947748821769204
 20
94.0
 10
13.509288980233993
 20
90.0
 10
14.0
 20
87.12597924419347
 10
14.584966643874894
 20
84.0
 10
15.464868368151347
 20
80.0
 10
16.0
 20
77.85208721449646
 10
17.029886543351296
 20
74.0
 10
18.0
 20
70.80605026952637
 10
18.903296670475132
 20
68.0
 10
20.0
 20
64.91470352025394
 10
21.09417876064586
 20
62.0
 10
22.0
 20
59.772990196630204
 10
23.619830459032325
 20
56.0
 10
24.53564879446168
 20
54.0
 10
26.0
 20
50.98269379732211
 10
27.527337183495227
 20
48.0
 10
28.60592792535425
 20
46.0
 10
30.0
 20
43.53491832126914
 10
32.0
 20
40.177758888297575
 10
33.36049342032694
 20
38.0
 10
34.663478515586554
 20
36.0
 10
36.019697141915266
 20
34.0
 10
38.0
 20
31.185682171072642
 10
40.0
 20
28.485809313840104
 10
41.930022166448204
 20
26.0
 10
43.53939477936112
 20
24.0
 10
45.20749580020474
 20
22.0
 10
46.935323244781095
 20
20.0
 10
48.724198298878804
 20
18.0
 10
50.57574341389951
 20
16.0
 10
52.49185319900616
 20
14.0
 10
54.47465606000271
 20
12.0
 10
56.52646426353685
 20
10.0
 10
58.64970987456576
 20
8.0
 10
60.84686386758882
 20
6.0
 10
63.120335705458345
 20
4.0
 10
65.47235088779038
 20
2.0
 10
67.90480448417125
 20
0.0
  0
LWPOLYLINE
  5
37
330
17
100
AcDbEntity
  8
등고선-주곡선
100
AcDbPolyline
 90
132
 70
0
 38
8.0
 10
193.57091681188203
 20
280.0
 10
192.0
 20
276.2435046974513
 10
190.92874967399217
 20
274.0
 10
189.87999622776002
 20
272.0
 10
188.0
 20
268.82450930626635
 10
186.13040064031833
 20
266.0
 10
184.6521321524484
 20
264.0
 10
183.04571444718582
 20
262.0
 10
181.29506725841966
 20
260.0
 10
179.37963138759534
 20
258.0
 10
177.27313644345773
 20
256.0
 10
174.9420486876579
 20
254.0
 10
172.3436072552844
 20
252.0
 10
170.0
 20
250.39267183773518
 10
168.0
 20
249.14309646598653
 10
166.0
 20
247.9706470048166
 10
162.1585446875763
 20
246.0
 10
160.0
 20
245.03283232876993
 10
157.5815315922813
 20
244.0
 10
154.0
 20
242.6527414520555
 10
152.0
 20
241.93895886882183
 10
148.0
 20
240.65099379337812
 10
145.923219320197
 20
240.0
 10
142.0
 20
238.86734194342733
 10
139.010316417744
 20
238.0
 10
136.0
 20
237.17493919865962
 10
132.0
 20
236.03647107473583
 10
130.0
 20
235.4796090607052
 10
126.0
 20
234.31199065817094
 10
124.0
 20
233.71272109963962
 10
120.0
 20
232.47497025977643
 10
118.0
 20
231.8228438457645
 10
114.0
 20
230.47968990445213
 10
112.0
 20
229.76834146112526
 10
108.0
 20
228.28652564582637
 10
106.0
 20
227.51138797500147
 10
102.33368689573855
 20
226.0
 10
100.0
 20
225.0131522560703
 10
97.77106377253985
 20
224.0
 10
94.0
 20
222.22968801457313
 10
92.0
 20
221.24574211901515
 10
89.61099187854626
 20
220.0
 10
86.0
 20
218.04132727412667
 10
84.0
 20
216.91132034804707
 10
82.0
 20
215.72126848824252
 10
79.2261017397503
 20
214.0
 10
76.15230500972841
 20
212.0
 10
74.0
 20
210.53979631056436
 10
72.0
 20
209.1225681864351
 10
70.0
 20
207.64464821423368
 10
67.86137284661179
 20
206.0
 10
65.36370188441937
 20
204.0
 10
62.981789614178965
 20
202.0
 10
60.707961870010806
 20
200.0
 10
58.53514510254871
 20
198.0
 10
56.45691397001033
 20
196.0
 10
54.46751591811643
 20
194.0
 10
52.56187889790039
 20
192.0
 10
50.735607237119126
 20
190.0
 10
48.984969673811996
 20
188.0
 10
47.306882696243555
 20
186.0
 10
45.69889161135086
 20
184.0
 10
44.0
 20
181.79297164739663
 10
42.0
 20
179.06138857288
 10
40.0
 20
176.15840699271106
 10
38.584467809221735
 20
174.0
 10
37.332638400603
 20
172.0
 10
36.0
 20
169.76181328091556
 10
34.0
 20
166.19691884198687
 10
32.83741157262147
 20
164.0
 10
31.8393619659818
 20
162.0
 10
30.0
 20
158.06235339957172
 10
29.095503359248298
 20
156.0
 10
28.0
 20
153.30014006489202
 10
26.74262798166937
 20
150.0
 10
26.0
 20
147.85718823112933
 10
24.753031956096812
 20
144.0
 10
24.0
 20
141.36199960907
 10
23.109755723934462
 20
138.0
 10
22.20624153536258
 20
134.0
 10
21.80636180166139
 20
132.0
 10
21.107391604901302
 20
128.0
 10
20.55754674652169
 20
124.0
 10
20.150565185953585
 20
120.0
 10
19.999099718429168
 20
118.0
 10
19.790097783204338
 20
114.0
 10
19.72069099946789
 20
110.0
 10
19.790097898736636
 20
106.0
 10
19.999099956659933
 20
102.0
 10
20.150565480410776
 20
100.0
 10
20.55754718978482
 20
96.0
 10
21.10739222912764
 20
92.0
 10
21.806362649769692
 20
88.0
 10
22.206242486097473
 20
86.0
 10
23.10975701303613
 20
82.0
 10
24.0
 20
78.63800626403813
 10
24.7530339106304
 20
76.0
 10
26.0
 20
72.14281941982956
 10
26.742631001458733
 20
70.0
 10
28.0
 20
66.69986971263256
 10
29.095508155827257
 20
64.0
 10
30.0
 20
61.937659081810956
 10
31.83936979072825
 20
58.0
 10
32.83742075696425
 20
56.0
 10
34.0
 20
53.803101637266714
 10
36.0
 20
50.238212672787256
 10
37.33265728307235
 20
48.0
 10
38.584490433849986
 20
46.0
 10
40.0
 20
43.84163489062454
 10
42.0
 20
40.938663847646765
 10
44.0
 20
38.20709377005326
 10
45.69895521809177
 20
36.0
 10
47.30696207428552
 20
34.0
 10
48.98506924008602
 20
32.0
 10
50.73573290837993
 20
30.0
 10
52.5620386822842
 20
28.0
 10
54.467720750386064
 20
26.0
 10
56.457178886924716
 20
24.0
 10
58.53549088934969
 20
22.0
 10
60.70841735391033
 20
20.0
 10
62.98239483791832
 20
18.0
 10
65.36451246411491
 20
16.0
 10
67.86246590397602
 20
14.0
 10
70.0
 20
12.356397608517758
 10
72.0
 20
10.87872571005634
 10
74.0
 20
9.461805678256189
 10
76.1552563658484
 20
8.0
 10
79.23031421135822
 20
6.0
 10
82.0
 20
4.282146056817408
 10
84.0
 20
3.0929075014500063
 10
86.0
 20
1.9639140473715477
 10
89.6246387975812
 20
0.0
  0
LWPOLYLINE
  5
38
330
17
100
AcDbEntity
  8
등고선-계곡선
100
AcDbPolyline
 90
147
 70
0
 38
10.0
 10
238.3791033181543
 20
280.0
 10
236.90617616830127
 20
278.0
 10
235.31684369371175
 20
276.0
 10
233.61651347988132
 20
274.0
 10
231.81266235145395
 20
272.0
 10
229.91440806311374
 20
270.0
 10
227.93197041769528
 20
268.0
 10
225.8760741122627
 20
266.0
 10
223.75734679801266
 20
264.0
 10
221.5857583249347
 20
262.0
 10
219.37013341352986
 20
260.0
 10
217.11775338718007
 20
258.0
 10
214.8340462528707
 20
256.0
 10
212.52235053651856
 20
254.0
 10
210.18372781115485
 20
252.0
 10
208.0
 20
250.16092262566954
 10
206.0
 20
248.50266650066166
 10
204.0
 20
246.86394413505673
 10
202.0
 20
245.2483830164349
 10
200.0
 20
243.6602742804393
 10
197.85514012882524
 20
242.0
 10
195.15433239507982
 20
240.0
 10
192.32309622771567
 20
238.0
 10
190.0
 20
236.4611434063304
 10
188.0
 20
235.2096393520498
 10
185.9733333824085
 20
234.0
 10
182.21626750532135
 20
232.0
 10
180.0
 20
230.96344829272178
 10
177.77247543000195
 20
230.0
 10
174.0
 20
228.61705617209253
 10
172.0
 20
227.9739677131553
 10
168.0
 20
226.92001776260557
 10
164.0
 20
226.0634596423397
 10
162.0
 20
225.71451478442265
 10
158.0
 20
225.11794649745795
 10
154.0
 20
224.6128709305804
 10
150.0
 20
224.1597650604004
 10
148.0
 20
223.944552694052
 10
144.0
 20
223.5279196757547
 10
140.0
 20
223.08343694568973
 10
136.0
 20
222.58693355712273
 10
132.0
 20
222.01715900396852
 10
130.0
 20
221.71511638487473
 10
126.0
 20
221.03874086234148
 10
122.0
 20
220.2494298335154
 10
120.0
 20
219.81733476717153
 10
116.0
 20
218.87891937850964
 10
112.73778475839659
 20
218.0
 10
110.0
 20
217.22774980360236
 10
106.15317352178407
 20
216.0
 10
104.0
 20
215.27688146588252
 10
100.56520526999346
 20
214.0
 10
98.0
 20
212.9999755864174
 10
95.65442054313392
 20
212.0
 10
92.0
 20
210.36004220990355
 10
90.0
 20
209.3993524733675
 10
87.27234861703448
 20
208.0
 10
84.0
 20
206.22749604506066
 10
82.0
 20
205.08030170940688
 10
80.0
 20
203.86712136879345
 10
77.07280156124312
 20
202.0
 10
74.1236764201645
 20
200.0
 10
72.0
 20
198.4827789410114
 10
70.0
 20
196.98213685175966
 10
68.0
 20
195.4088656209024
 10
66.0
 20
193.76098727783216
 10
63.95900699197088
 20
192.0
 10
61.74897377853582
 20
190.0
 10
59.649831481020485
 20
188.0
 10
57.65369321136334
 20
186.0
 10
55.753762601354495
 20
184.0
 10
53.94426911724338
 20
182.0
 10
52.0
 20
179.74143550583076
 10
50.0
 20
177.28478456236695
 10
48.0
 20
174.6756331566121
 10
46.07269847500104
 20
172.0
 10
44.704174792243585
 20
170.0
 10
43.40225361299041
 20
168.0
 10
42.0
 20
165.72700817148848
 10
40.0
 20
162.26434955544156
 10
38.774864234865184
 20
160.0
 10
37.75730735219889
 20
158.0
 10
36.0
 20
154.28631648492032
 10
34.9917978893609
 20
152.0
 10
34.0
 20
149.55782350616275
 10
32.656007464358034
 20
146.0
 10
31.97308686919777
 20
144.0
 10
30.717256961130445
 20
140.0
 10
30.0
 20
137.37696808515813
 10
29.15582000637903
 20
134.0
 10
28.32067511127187
 20
130.0
 10
27.964392189687775
 20
128.0
 10
27.353316508789426
 20
124.0
 10
26.901265589877383
 20
120.0
 10
26.60285641690487
 20
116.0
 10
26.454535093756533
 20
112.0
 10
26.454535227461925
 20
108.0
 10
26.60285682822846
 20
104.0
 10
26.901266309780283
 20
100.0
 10
27.353317589994187
 20
96.0
 10
27.96439370832646
 20
92.0
 10
28.320676845169498
 20
90.0
 10
29.155822386288506
 20
86.0
 10
30.0
 20
82.62304345553918
 10
30.71726062472113
 20
80.0
 10
31.973091850439044
 20
76.0
 10
32.6560131823071
 20
74.0
 10
34.0
 20
70.44219558434717
 10
34.9918070660342
 20
68.0
 10
36.0
 20
65.71370765801576
 10
37.757322515378654
 20
62.0
 10
38.77488213717796
 20
60.0
 10
40.0
 20
57.735689763197456
 10
42.0
 20
54.27304170179819
 10
43.40229141160886
 20
52.0
 10
44.704220610874245
 20
50.0
 10
46.072754016341364
 20
48.0
 10
48.0
 20
45.324466782271074
 10
50.0
 20
42.71534019119539
 10
52.0
 20
40.25871984463951
 10
53.944441467773395
 20
38.0
 10
55.753983234542076
 20
36.0
 10
57.65397794632551
 20
34.0
 10
59.65020220166557
 20
32.0
 10
61.74946096012874
 20
30.0
 10
63.95965328574041
 20
28.0
 10
66.0
 20
26.239709069512426
 10
68.0
 20
24.591995816119606
 10
70.0
 20
23.018929121266858
 10
72.0
 20
21.518540749886686
 10
74.12600457970906
 20
20.0
 10
77.076141400838
 20
18.0
 10
80.0
 20
16.135744874108244
 10
82.0
 20
14.923243926423941
 10
84.0
 20
13.776895549003397
 10
87.28369296148388
 20
12.0
 10
90.0
 20
10.608281174087871
 10
92.0
 20
9.649415825146297
 10
95.68466334167452
 20
8.0
 10
98.0
 20
7.016390591274918
 10
100.62033054785648
 20
6.0
 10
104.0
 20
4.751354306714599
 10
106.26079248168851
 20
4.0
 10
110.0
 20
2.8208418736821725
 10
112.97023883095062
 20
2.0
 10
116.0
 20
1.2045250668473426
 10
120.0
 20
0.2979625471760243
  0
LWPOLYLINE
  5
39
330
17
100
AcDbEntity
  8
등고선-계곡선
100
AcDbPolyline
 90
17
 70
0
 38
10.0
 10
182.30224139217444
 20
0.0
 10
186.0
 20
0.6014210582203734
 10
190.0
 20
1.3027237923722097
 10
193.76870775407465
 20
2.0
 10
196.0
 20
2.404809669485747
 10
200.0
 20
3.1347051082110617
 10
204.0
 20
3.849430589432564
 10
206.0
 20
4.180387325899802
 10
210.0
 20
4.7672059395212285
 10
214.0
 20
5.225431408431401
 10
218.0
 20
5.478860073291707
 10
222.0
 20
5.4249444524653505
 10
226.0
 20
4.926266520831843
 10
229.4175608049999
 20
4.0
 10
232.0
 20
2.868436232856973
 10
234.0
 20
1.6617961427328942
 10
236.08054273161562
 20
0.0
  0
LWPOLYLINE
  5
3A
330
17
100
AcDbEntity
  8
등고선-주곡선
100
AcDbPolyline
 90
229
 70
0
 38
12.0
 10
290.57477783068805
 20
280.0
 10
288.8433622867432
 20
278.0
 10
286.77466963997574
 20
276.0
 10
284.30285438820937
 20
274.0
 10
282.0
 20
272.42326584584464
 10
280.0
 20
271.1973822448848
 10
277.91872778252565
 20
270.0
 10
274.0
 20
268.0185932979755
 10
272.0
 20
267.10889151551163
 10
269.5837139777183
 20
266.0
 10
266.0
 20
264.47861352577536
 10
264.0
 20
263.6330555378774
 10
260.13841096593643
 20
262.0
 10
258.0
 20
261.1236533791004
 10
255.4257803548518
 20
260.0
 10
252.0
 20
258.52730902800005
 10
250.0
 20
257.6284846542005
 10
246.50958780390707
 20
256.0
 10
244.0
 20
254.82015597699035
 10
242.0
 20
253.81885449993177
 10
238.47600069271553
 20
252.0
 10
236.0
 20
250.69293812994508
 10
234.0
 20
249.58142825281257
 10
231.26230664904293
 20
248.0
 10
228.0
 20
246.0561778193263
 10
226.0
 20
244.8334935982457
 10
224.0
 20
243.55884763752337
 10
221.62578574191053
 20
242.0
 10
218.64757734816754
 20
240.0
 10
216.0
 20
238.1746698445681
 10
214.0
 20
236.77545241649193
 10
212.0
 20
235.34765846755622
 10
210.0
 20
233.89832578221993
 10
207.3743699554794
 20
232.0
 10
204.606633782892
 20
230.0
 10
202.0
 20
228.13474455987958
 10
200.0
 20
226.74091132846138
 10
198.0
 20
225.37312608095743
 10
195.93345962495874
 20
224.0
 10
192.70995092530512
 20
222.0
 10
190.0
 20
220.44714572745485
 10
188.0
 20
219.39693606089293
 10
185.0414325502454
 20
218.0
 10
182.0
 20
216.76406248294435
 10
179.82041387769482
 20
216.0
 10
176.0
 20
214.9259574776066
 10
172.0
 20
214.0914853197898
 10
170.0
 20
213.7831973104006
 10
166.0
 20
213.33702022457194
 10
162.0
 20
213.06387379244492
 10
158.0
 20
212.91062202505307
 10
154.0
 20
212.8277548956084
 10
150.0
 20
212.77184474976724
 10
146.0
 20
212.70628325626197
 10
142.0
 20
212.60089620282722
 10
138.0
 20
212.43095386535498
 10
134.0
 20
212.1759434782573
 10
131.88671713134877
 20
212.0
 10
128.0
 20
211.61483873867206
 10
124.0
 20
211.0992941328351
 10
120.0
 20
210.44964507302586
 10
117.66508609778289
 20
210.0
 10
114.0
 20
209.22769112702457
 10
110.0
 20
208.2231067116958
 10
108.0
 20
207.66824622427183
 10
104.0
 20
206.43651545203528
 10
102.0
 20
205.75523914762792
 10
98.0
 20
204.26881069211407
 10
96.0
 20
203.46136135264823
 10
92.67885378661492
 20
202.0
 10
90.0
 20
200.74478467916938
 10
88.0
 20
199.7338430853763
 10
84.79156540422697
 20
198.0
 10
82.0
 20
196.38829136467197
 10
80.0
 20
195.15870834623823
 10
78.0
 20
193.85788289302423
 10
75.29856564027966
 20
192.0
 10
72.5733204466054
 20
190.0
 10
70.02080739139441
 20
188.0
 10
68.0
 20
186.32479997822952
 10
66.0
 20
184.57681188586216
 10
64.0
 20
182.73372684575116
 10
62.0
 20
180.78879271733845
 10
60.0
 20
178.7335950683342
 10
58.0
 20
176.5578138365516
 10
56.0
 20
174.2489232066608
 10
54.16308512548043
 20
172.0
 10
52.614538817863554
 20
170.0
 10
51.14442809005644
 20
168.0
 10
49.750346179694176
 20
166.0
 10
48.0
 20
163.3338459034845
 10
46.0
 20
160.04714459080907
 10
44.834384321616156
 20
158.0
 10
43.76306286864428
 20
156.0
 10
42.0
 20
152.44903654292207
 10
40.87414955771832
 20
150.0
 10
40.0
 20
147.939561706248
 10
38.46098284594429
 20
144.0
 10
37.75632661062632
 20
142.0
 10
36.482760951982605
 20
138.0
 10
35.91983117057578
 20
136.0
 10
34.91388698232347
 20
132.0
 10
34.09401618598292
 20
128.0
 10
33.743064196686966
 20
126.0
 10
33.16695505495791
 20
122.0
 10
32.76043479881578
 20
118.0
 10
32.518503983377705
 20
114.0
 10
32.438189440115515
 20
110.0
 10
32.51850456451677
 20
106.0
 10
32.76043600751353
 20
102.0
 10
33.16695698565483
 20
98.0
 10
33.74306699501174
 20
94.0
 10
34.09401940387838
 20
92.0
 10
34.913891473588876
 20
88.0
 10
35.919837298461466
 20
84.0
 10
36.48276797615673
 20
82.0
 10
37.75633627686205
 20
78.0
 10
38.46099398036874
 20
76.0
 10
40.0
 20
72.06047563147507
 10
40.874167744942085
 20
70.0
 10
42.0
 20
67.55101015686913
 10
43.76309350928985
 20
64.0
 10
44.834420878469956
 20
62.0
 10
46.0
 20
59.95293067414487
 10
48.0
 20
56.666249386986465
 10
49.75042618285804
 20
54.0
 10
51.14452678417184
 20
52.0
 10
52.61466098508626
 20
50.0
 10
54.16323713666917
 20
48.0
 10
56.0
 20
45.751313260549715
 10
58.0
 20
43.442480467480145
 10
60.0
 20
41.26677058017956
 10
62.0
 20
39.211660970081184
 10
64.0
 20
37.26683553948715
 10
66.0
 20
35.423884797688515
 10
68.0
 20
33.676062775781716
 10
70.02211682679156
 20
32.0
 10
72.57514504033249
 20
30.0
 10
75.30113623870108
 20
28.0
 10
78.0
 20
26.14447150571566
 10
80.0
 20
24.84419905748442
 10
82.0
 20
23.61530255990764
 10
84.79999869664172
 20
22.0
 10
88.0
 20
20.272473805844342
 10
90.0
 20
19.26301970159748
 10
92.70112677723438
 20
18.0
 10
96.0
 20
16.55226764216717
 10
98.0
 20
15.748043745746362
 10
102.0
 20
14.268467018083447
 10
104.0
 20
13.592797840858921
 10
108.0
 20
12.372856602174581
 10
110.0
 20
11.827740011180481
 10
114.0
 20
10.84339981285841
 10
118.0
 20
10.032439054185195
 10
120.0
 20
9.673088305238995
 10
124.0
 20
9.071615119812245
 10
128.0
 20
8.62280036134186
 10
132.0
 20
8.31938516707389
 10
136.0
 20
8.156240704250985
 10
140.0
 20
8.130223218286536
 10
144.0
 20
8.240074706579035
 10
148.0
 20
8.486364812355573
 10
152.0
 20
8.871470675086098
 10
156.0
 20
9.399592395287916
 10
159.5791946490763
 20
10.0
 10
162.0
 20
10.452384449126923
 10
166.0
 20
11.327580896433474
 10
168.65521010386772
 20
12.0
 10
172.0
 20
12.91266238511838
 10
175.49567439119872
 20
14.0
 10
178.0
 20
14.83165582569366
 10
181.19009500116562
 20
16.0
 10
184.0
 20
17.09471300009234
 10
186.14692057721567
 20
18.0
 10
190.0
 20
19.721827362986158
 10
192.0
 20
20.67458560756029
 10
194.62783913778426
 20
22.0
 10
198.0
 20
23.8061072578571
 10
200.0
 20
24.93050252767842
 10
202.0
 20
26.1116948418268
 10
205.07641823742009
 20
28.0
 10
208.0
 20
29.907550459192787
 10
210.0
 20
31.257890282004226
 10
212.0
 20
32.65900162305331
 10
214.0
 20
34.10796441665048
 10
216.55021299692535
 20
36.0
 10
219.1524620712451
 20
38.0
 10
221.67472958092395
 20
40.0
 10
224.0
 20
41.88052139266876
 10
226.0
 20
43.504735188025904
 10
228.0
 20
45.13538339149434
 10
230.0
 20
46.76042482508761
 10
232.0
 20
48.36668821405489
 10
234.08269688471927
 20
50.0
 10
236.76685424851456
 20
52.0
 10
239.6109915023565
 20
54.0
 10
242.0
 20
55.53859940076763
 10
244.0
 20
56.70789935070776
 10
246.45950219263162
 20
58.0
 10
250.0
 20
59.56487597356918
 10
252.0
 20
60.29382654832047
 10
256.0
 20
61.415099544890936
 10
259.0589482524076
 20
62.0
 10
262.0
 20
62.34751084168106
 10
266.0
 20
62.4879219208563
 10
270.0
 20
62.26396412954149
 10
272.07306724271325
 20
62.0
 10
276.0
 20
61.1385954552152
 10
279.4565192197032
 20
60.0
 10
282.0
 20
58.81646566708941
 10
284.0
 20
57.665254151011
 10
286.2886130671185
 20
56.0
 10
288.411752603739
 20
54.0
 10
290.0914257943831
 20
52.0
 10
292.0
 20
49.02896975146796
 10
293.4891466882707
 20
46.0
 10
294.27596690281223
 20
44.0
 10
295.51264698802356
 20
40.0
 10
296.00735616516874
 20
38.0
 10
296.7984389893156
 20
34.0
 10
297.40478513633843
 20
30.0
 10
297.87579229135395
 20
26.0
 10
298.07120562247974
 20
24.0
 10
298.39892899030474
 20
20.0
 10
298.66272315399897
 20
16.0
 10
298.87771771258593
 20
12.0
 10
299.0549633753042
 20
8.0
 10
299.20257391648397
 20
4.0
 10
299.32654772571533
 20
0.0
  0
LWPOLYLINE
  5
3B
330
17
100
AcDbEntity
  8
등고선-주곡선
100
AcDbPolyline
 90
268
 70
0
 38
14.0
 10
348.9389221505017
 20
280.0
 10
348.5826776107511
 20
276.0
 10
348.1152499441237
 20
272.0
 10
347.82726311278304
 20
270.0
 10
347.1110538313119
 20
266.0
 10
346.1548377632847
 20
262.0
 10
345.54658489686506
 20
260.0
 10
344.0
 20
256.059583452663
 10
342.90676346278855
 20
254.0
 10
341.57783429069934
 20
252.0
 10
339.8192430288324
 20
250.0
 10
337.2369494725562
 20
248.0
 10
334.0
 20
246.48471773990988
 10
332.0
 20
245.9189940957842
 10
328.0
 20
245.39106318072524
 10
324.0
 20
245.35186343942038
 10
320.0
 20
245.60473999469662
 10
316.1686725390087
 20
246.0
 10
314.0
 20
246.27266939838748
 10
310.0
 20
246.8033255568741
 10
306.0
 20
247.32312031120313
 10
302.0
 20
247.79744570619843
 10
300.0
 20
248.0107314794145
 10
296.0
 20
248.4030097342269
 10
292.0
 20
248.69800901076007
 10
288.0
 20
248.88519477663493
 10
284.0
 20
248.95592987310278
 10
280.0
 20
248.90215486336479
 10
276.0
 20
248.71539175867235
 10
272.0
 20
248.38595340271448
 10
268.7519386029042
 20
248.0
 10
266.0
 20
247.62619186829173
 10
262.0
 20
246.9354173536375
 10
258.0
 20
246.06299551785386
 10
256.0
 20
245.58200108295657
 10
252.0
 20
244.4751767219
 10
250.0
 20
243.84903211021887
 10
246.0
 20
242.48499840847816
 10
244.0
 20
241.72703888703296
 10
240.0
 20
240.07488903105886
 10
238.0
 20
239.19238257920802
 10
235.51938715147352
 20
238.0
 10
232.0
 20
236.2118959839497
 10
230.0
 20
235.1324355165637
 10
228.0
 20
233.98489589198982
 10
224.68712047394442
 20
232.0
 10
222.0
 20
230.3051759844615
 10
220.0
 20
228.9935923199535
 10
218.0
 20
227.63254268767116
 10
215.66620897937224
 20
226.0
 10
212.87375270443513
 20
224.0
 10
210.1469816731796
 20
222.0
 10
208.0
 20
220.41541921409024
 10
206.0
 20
218.93657682184255
 10
204.0
 20
217.46314166407444
 10
201.98917555884154
 20
216.0
 10
199.12897553969236
 20
214.0
 10
196.12756054608957
 20
212.0
 10
194.0
 20
210.68656956299486
 10
192.0
 20
209.53389004687543
 10
189.01867636741818
 20
208.0
 10
186.0
 20
206.66270415800122
 10
184.0
 20
205.9083083856164
 10
180.0
 20
204.7250521798405
 10
176.48758511553
 20
204.0
 10
174.0
 20
203.64328962435877
 10
170.0
 20
203.30983350796527
 10
166.0
 20
203.20177057219746
 10
162.0
 20
203.2535594534707
 10
158.0
 20
203.4045093557905
 10
154.0
 20
203.60189893872683
 10
150.0
 20
203.8019593289004
 10
146.0
 20
203.96944558706
 10
144.0
 20
204.03330172445635
 10
140.0
 20
204.10425827708914
 10
136.0
 20
204.07954045088184
 10
133.38351604848395
 20
204.0
 10
130.0
 20
203.83369114707125
 10
126.0
 20
203.51408018247986
 10
122.0
 20
203.0535597829431
 10
118.0
 20
202.4394259397566
 10
115.65699978834583
 20
202.0
 10
112.0
 20
201.23046912682702
 10
108.0
 20
200.2093504122937
 10
106.0
 20
199.63801116775565
 10
102.0
 20
198.35467308937996
 10
100.0
 20
197.64230874101787
 10
96.0
 20
196.06554718621092
 10
94.0
 20
195.20884942477662
 10
91.41147911137837
 20
194.0
 10
88.0
 20
192.28469159315037
 10
86.0
 20
191.1978162768595
 10
83.93608107102234
 20
190.0
 10
80.71593914326367
 20
188.0
 10
78.0
 20
186.17844785729105
 10
76.0
 20
184.74794854503736
 10
74.0
 20
183.2333683509949
 10
72.0
 20
181.63156411074735
 10
70.0
 20
179.9380780808007
 10
67.83961002191343
 20
178.0
 10
65.74230487382071
 20
176.0
 10
63.76802925363633
 20
174.0
 10
61.90690481065821
 20
172.0
 10
60.0
 20
169.82399647282108
 10
58.0
 20
167.38758398555606
 10
56.0
 20
164.7718904240383
 10
54.0330258310445
 20
162.0
 10
52.70270621730228
 20
160.0
 10
51.44755456425825
 20
158.0
 10
50.0
 20
155.53557469423168
 10
48.08761739929095
 20
152.0
 10
47.08879005115435
 20
150.0
 10
46.0
 20
147.64659270358422
 10
44.4522002115331
 20
144.0
 10
43.68381644457905
 20
142.0
 10
42.30225890416345
 20
138.0
 10
41.687164635450685
 20
136.0
 10
40.6022287144156
 20
132.0
 10
40.0
 20
129.35365534961653
 10
39.33192456336515
 20
126.0
 10
38.71423286875156
 20
122.0
 10
38.27850086454897
 20
118.0
 10
38.01923654848888
 20
114.0
 10
37.9534493687564
 20
112.0
 10
37.95344995243059
 20
108.0
 10
38.01923769604823
 20
106.0
 10
38.27850326196725
 20
102.0
 10
38.71423672432823
 20
98.0
 10
39.33193019873403
 20
94.0
 10
40.0
 20
90.64637941159094
 10
40.60223784224645
 20
88.0
 10
41.6871772433065
 20
84.0
 10
42.30227342288934
 20
82.0
 10
43.683836693229885
 20
78.0
 10
44.45222376912025
 20
76.0
 10
46.0
 20
72.3534792081239
 10
47.08882955331349
 20
70.0
 10
48.08766390275449
 20
68.0
 10
50.0
 20
64.46453990356336
 10
51.44763771991253
 20
62.0
 10
52.70280744436508
 20
60.0
 10
54.03314911634654
 20
58.0
 10
56.0
 20
55.22833612966907
 10
58.0
 20
52.612699114494326
 10
60.0
 20
50.176356069139146
 10
61.907299480615315
 20
48.0
 10
63.76854132356913
 20
46.0
 10
65.74297633004504
 20
44.0
 10
67.84050061049952
 20
42.0
 10
70.0
 20
40.06294680069271
 10
72.0
 20
38.36970105641284
 10
74.0
 20
36.76819320887864
 10
76.0
 20
35.253979080739086
 10
78.0
 20
33.823932524809656
 10
80.72076492464298
 20
32.0
 10
83.94321390538612
 20
30.0
 10
86.0
 20
28.80740554069221
 10
88.0
 20
27.72174901629868
 10
91.42991710864985
 20
26.0
 10
94.0
 20
24.802481126409504
 10
96.0
 20
23.94842911842193
 10
100.0
 20
22.377515452632807
 10
102.0
 20
21.6697653600134
 10
106.0
 20
20.396520045026186
 10
108.0
 20
19.833221683159962
 10
112.0
 20
18.829473078195353
 10
116.0
 20
18.01643261823647
 10
118.0
 20
17.664364942061205
 10
122.0
 20
17.091888115411805
 10
126.0
 20
16.68940265432518
 10
130.0
 20
16.450455885481297
 10
134.0
 20
16.371080700408154
 10
138.0
 20
16.44968459898689
 10
142.0
 20
16.68699675945653
 10
146.0
 20
17.086070547755348
 10
150.0
 20
17.652340610661934
 10
152.0
 20
18.00052910728266
 10
156.0
 20
18.801342295468316
 10
160.0
 20
19.786849800462953
 10
162.0
 20
20.340312864614734
 10
166.0
 20
21.58362494350227
 10
168.0
 20
22.275962515272216
 10
172.0
 20
23.800098535566487
 10
174.0
 20
24.630631811929753
 10
177.03406638581956
 20
26.0
 10
180.0
 20
27.442960166255123
 10
182.0
 20
28.48819374115583
 10
184.7151537560946
 20
30.0
 10
188.0
 20
31.972710507218387
 10
190.0
 20
33.24864284076057
 10
192.0
 20
34.59562029201931
 10
194.0
 20
36.01326455043868
 10
196.66816862814045
 20
38.0
 10
199.19083137925048
 20
40.0
 10
201.57272127129187
 20
42.0
 10
203.83365780607608
 20
44.0
 10
205.99058056311213
 20
46.0
 10
208.0
 20
47.94067569521748
 10
210.0
 20
49.947250311021435
 10
211.97773547455517
 20
52.0
 10
213.85338148408994
 20
54.0
 10
215.68851676966221
 20
56.0
 10
217.49534102785802
 20
58.0
 10
219.28722562713955
 20
60.0
 10
221.07947914663308
 20
62.0
 10
222.89031448478045
 20
64.0
 10
224.74210810249772
 20
66.0
 10
226.66307444351895
 20
68.0
 10
228.68952289468868
 20
70.0
 10
230.86892215307188
 20
72.0
 10
233.26406482493857
 20
74.0
 10
235.95868912135873
 20
76.0
 10
238.0
 20
77.31070272934214
 10
240.0
 20
78.46244332516164
 10
243.13069335494487
 20
80.0
 10
246.0
 20
81.16317200503856
 10
248.40806159296324
 20
82.0
 10
252.0
 20
83.01244601194742
 10
256.0
 20
83.93652737772467
 10
258.0
 20
84.3144929093681
 10
262.0
 20
84.97483433717359
 10
266.0
 20
85.55402738751903
 10
269.33922146769044
 20
86.0
 10
272.0
 20
86.32254057713689
 10
276.0
 20
86.8042926466136
 10
280.0
 20
87.302677172442
 10
284.0
 20
87.8339389343148
 10
286.0
 20
88.10761280642001
 10
290.0
 20
88.66677539690414
 10
294.0
 20
89.27822614585367
 10
298.0
 20
89.94413080218182
 10
300.0
 20
90.27589344477876
 10
304.0
 20
90.96326712541405
 10
308.0
 20
91.68064580124646
 10
310.0
 20
92.04044383016661
 10
314.0
 20
92.7030276101306
 10
318.0
 20
93.30546892533937
 10
322.0
 20
93.7732631686902
 10
326.0
 20
93.99302782050718
 10
330.0
 20
93.79427991384792
 10
334.0
 20
92.9225269318227
 10
336.23731253422847
 20
92.0
 10
339.1808167166304
 20
90.0
 10
341.11173985432833
 20
88.0
 10
342.5400480812601
 20
86.0
 10
344.0
 20
83.28127061279973
 10
345.30727293310815
 20
80.0
 10
346.0
 20
77.79240735688407
 10
346.93157501167116
 20
74.0
 10
347.67179370824965
 20
70.0
 10
348.0
 20
67.77960052023087
 10
348.4543315880601
 20
64.0
 10
348.8237112089296
 20
60.0
 10
349.10614097634294
 20
56.0
 10
349.3217394931669
 20
52.0
 10
349.4858745972509
 20
48.0
 10
349.61040994520096
 20
44.0
 10
349.70455909511963
 20
40.0
 10
349.7754921576607
 20
36.0
 10
349.8287820915859
 20
32.0
 10
349.8687436827833
 20
28.0
 10
349.8986978726969
 20
24.0
 10
349.9211818169317
 20
20.0
 10
349.93811767660145
 20
16.0
 10
349.9509487695648
 20
12.0
 10
349.9607491531492
 20
8.0
 10
349.9683112263766
 20
4.0
 10
349.97421505795063
 20
0.0
  0
LWPOLYLINE
  5
3C
330
17
100
AcDbEntity
  8
등고선-주곡선
100
AcDbPolyline
 90
261
 70
0
 38
16.0
 10
286.0
 20
236.18715937128573
 10
282.0
 20
236.83532295164645
 10
278.0
 20
237.26344194757647
 10
274.0
 20
237.48225109575552
 10
270.0
 20
237.4974054072817
 10
266.0
 20
237.30976435309225
 10
262.0
 20
236.91553721328793
 10
258.0
 20
236.30631566266408
 10
256.0
 20
235.92141858855652
 10
252.0
 20
235.01278430996604
 10
248.45414937128027
 20
234.0
 10
246.0
 20
233.22565324041602
 10
242.66378679127405
 20
232.0
 10
240.0
 20
230.9368953496623
 10
237.89523936688963
 20
230.0
 10
234.0
 20
228.12086942041944
 10
232.0
 20
227.07493747830216
 10
230.0
 20
225.95420844605275
 10
226.71725133245647
 20
224.0
 10
224.0
 20
222.27193131918878
 10
222.0
 20
220.93456611458498
 10
220.0
 20
219.53855879334043
 10
217.87457627761026
 20
218.0
 10
215.19690521415043
 20
216.0
 10
212.60400277920454
 20
214.0
 10
210.06800796773604
 20
212.0
 10
208.0
 20
210.36014941918154
 10
206.0
 20
208.77691662983312
 10
204.0
 20
207.2104712832567
 10
202.0
 20
205.6774060464338
 10
199.72009698935514
 20
204.0
 10
196.81370940035174
 20
202.0
 10
194.0
 20
200.2332636699532
 10
192.0
 20
199.11960867204942
 10
189.72319599184348
 20
198.0
 10
186.0
 20
196.50833010217391
 10
184.0
 20
195.88528233560262
 10
180.0
 20
194.99686467285622
 10
176.0
 20
194.515966284208
 10
172.0
 20
194.367670103364
 10
168.0
 20
194.4710945185118
 10
164.0
 20
194.74815693400876
 10
160.0
 20
195.12905165958995
 10
156.0
 20
195.55477636225822
 10
152.0
 20
195.97749057586424
 10
150.0
 20
196.18126345298614
 10
146.0
 20
196.5431762096478
 10
142.0
 20
196.820936500135
 10
138.0
 20
196.99402285901587
 10
134.0
 20
197.04624803279367
 10
130.0
 20
196.96424804019946
 10
126.0
 20
196.73620988922283
 10
122.0
 20
196.3508135610524
 10
119.361180737242
 20
196.0
 10
116.0
 20
195.4698085206736
 10
112.0
 20
194.66452549932643
 10
109.28133702104682
 20
194.0
 10
106.0
 20
193.1083325500597
 10
102.54446759155087
 20
192.0
 10
100.0
 20
191.10553743319957
 10
97.2099977133573
 20
190.0
 10
94.0
 20
188.61664250826271
 10
92.0
 20
187.66905259287046
 10
88.7644004273515
 20
186.0
 10
86.0
 20
184.45219661975992
 10
84.0
 20
183.2441148451073
 10
82.0
 20
181.95654527943768
 10
79.16574183766467
 20
180.0
 10
76.48885900368789
 20
178.0
 10
74.00846487526188
 20
176.0
 10
72.0
 20
174.26663448433848
 10
70.0
 20
172.42927772260637
 10
68.0
 20
170.47137682840344
 10
66.0
 20
168.38113516715208
 10
64.0
 20
166.14400656433403
 10
62.20758238452318
 20
164.0
 10
60.63679268409273
 20
162.0
 10
59.15789514609165
 20
160.0
 10
57.76648916312273
 20
158.0
 10
56.0
 20
155.2706149862458
 10
54.06219991401967
 20
152.0
 10
52.969120663312495
 20
150.0
 10
51.94893034319487
 20
148.0
 10
50.094060180344194
 20
144.0
 10
49.25497457472093
 20
142.0
 10
48.0
 20
138.6703310352442
 10
47.09064308044377
 20
136.0
 10
46.0
 20
132.27030024297915
 10
45.41414867868607
 20
130.0
 10
44.55228407095075
 20
126.0
 10
44.0
 20
122.70450749290009
 10
43.628986469779925
 20
120.0
 10
43.25080705023141
 20
116.0
 10
43.06291479305605
 20
112.0
 10
43.062915893269796
 20
108.0
 10
43.2508104413851
 20
104.0
 10
43.628992426697096
 20
100.0
 10
44.0
 20
97.29554367208938
 10
44.55229477080451
 20
94.0
 10
45.41416382885996
 20
90.0
 10
46.0
 20
87.72976487000773
 10
47.09066767304116
 20
84.0
 10
48.0
 20
81.32975344713107
 10
49.25501488174297
 20
78.0
 10
50.09410726781131
 20
76.0
 10
51.948998201895925
 20
72.0
 10
52.96920218693074
 20
70.0
 10
54.06229724845338
 20
68.0
 10
56.0
 20
64.72960238626125
 10
57.766669298435396
 20
62.0
 10
59.15811913565976
 20
60.0
 10
60.637072569161795
 20
58.0
 10
62.20793461150537
 20
56.0
 10
64.0
 20
53.856522639651885
 10
66.0
 20
51.619522466042845
 10
68.0
 20
49.52943862350701
 10
70.0
 20
47.57173179049679
 10
72.0
 20
45.73461385019184
 10
74.01030635482336
 20
44.0
 10
76.49142939142924
 20
42.0
 10
79.16938563170477
 20
40.0
 10
82.0
 20
38.046891994748485
 10
84.0
 20
36.76011139629212
 10
86.0
 20
35.55300408910015
 10
88.77710826064212
 20
34.0
 10
92.0
 20
32.340164401395526
 10
94.0
 20
31.394685294783862
 10
97.24734098170293
 20
30.0
 10
100.0
 20
28.914354839411097
 10
102.62090790128082
 20
28.0
 10
106.0
 20
26.926405736366583
 10
109.46638764542038
 20
26.0
 10
112.0
 20
25.395876039907893
 10
116.0
 20
24.61544122770846
 10
120.0
 20
24.027739161807276
 10
122.0
 20
23.796392114229082
 10
126.0
 20
23.470372739523807
 10
130.0
 20
23.32504918836623
 10
134.0
 20
23.357960982378653
 10
138.0
 20
23.569350989367823
 10
142.0
 20
23.96216109502632
 10
144.0
 20
24.220724280731968
 10
148.0
 20
24.874884349237668
 10
152.0
 20
25.723534655422792
 10
154.0
 20
26.217661645789047
 10
158.0
 20
27.346766010474436
 10
160.0152256759
 20
28.0
 10
164.0
 20
29.427013346307135
 10
166.0
 20
30.22936147103853
 10
170.0
 20
31.998627935540643
 10
172.0
 20
32.96302153401645
 10
174.0
 20
34.000853714127416
 10
177.56990677667739
 20
36.0
 10
180.0
 20
37.47954487921221
 10
182.0
 20
38.77799050128673
 10
184.0
 20
40.15442014205059
 10
186.52853098495117
 20
42.0
 10
189.08627421860518
 20
44.0
 10
191.47765517396866
 20
46.0
 10
193.72540816239544
 20
48.0
 10
195.84837516875646
 20
50.0
 10
197.86234064798842
 20
52.0
 10
199.78069562611586
 20
54.0
 10
201.6149802267284
 20
56.0
 10
203.3753423011498
 20
58.0
 10
205.07094281417812
 20
60.0
 10
206.71033501348603
 20
62.0
 10
208.30184373321663
 20
64.0
 10
210.0
 20
66.18314118398598
 10
212.0
 20
68.78608043083184
 10
214.0
 20
71.40297922270085
 10
216.0
 20
73.99400591656386
 10
217.5984617739533
 20
76.0
 10
219.2453578803838
 20
78.0
 10
220.97483938148616
 20
80.0
 10
222.82677177612905
 20
82.0
 10
224.85577658015728
 20
84.0
 10
227.13796360227974
 20
86.0
 10
229.781092528566
 20
88.0
 10
232.0
 20
89.41619173213238
 10
234.0
 20
90.5188103906364
 10
237.24424711535693
 20
92.0
 10
240.0
 20
93.00867070211648
 10
243.3258999396508
 20
94.0
 10
246.0
 20
94.64067239303141
 10
250.0
 20
95.4343864585611
 10
253.3591865081874
 20
96.0
 10
256.0
 20
96.38680337454909
 10
260.0
 20
96.94181634815418
 10
264.0
 20
97.5006778301376
 10
267.35040668429167
 20
98.0
 10
270.0
 20
98.40209356717746
 10
274.0
 20
99.08277311724066
 10
278.0
 20
99.87519956215321
 10
280.0
 20
100.30443150742542
 10
284.0
 20
101.26177824723067
 10
286.6800391822278
 20
102.0
 10
290.0
 20
102.98063204196656
 10
293.01977389546283
 20
104.0
 10
296.0
 20
105.08331395806249
 10
298.2637993083389
 20
106.0
 10
302.0
 20
107.63613417537202
 10
304.0
 20
108.59419290804409
 10
306.7144840548886
 20
110.0
 10
310.0
 20
111.85947374049557
 10
312.0
 20
113.07797433508222
 10
314.0
 20
114.38342939055458
 10
316.3252763434702
 20
116.0
 10
318.9947887718238
 20
118.0
 10
321.44621195744537
 20
120.0
 10
323.71171519982806
 20
122.0
 10
325.8155042201963
 20
124.0
 10
327.7753630029725
 20
126.0
 10
329.6037251577623
 20
128.0
 10
331.308375476923
 20
130.0
 10
332.8928395686927
 20
132.0
 10
334.35648344349187
 20
134.0
 10
336.0
 20
136.44275441113666
 10
338.0
 20
139.714996590042
 10
339.28057131940994
 20
142.0
 10
340.2726370610447
 20
144.0
 10
342.0
 20
147.94890743620678
 10
342.811625280037
 20
150.0
 10
344.0
 20
153.7469534930035
 10
344.63763012276763
 20
156.0
 10
345.48472838586815
 20
160.0
 10
346.0
 20
163.8195421023681
 10
346.20816509625797
 20
166.0
 10
346.3513318161725
 20
170.0
 10
346.1983827596774
 20
174.0
 10
346.0
 20
176.06408357961345
 10
345.4612743892033
 20
180.0
 10
344.6013620634272
 20
184.0
 10
344.0
 20
186.11375413321494
 10
342.7550264848389
 20
190.0
 10
341.9595048285636
 20
192.0
 10
340.1854805666855
 20
196.0
 10
339.1867077708459
 20
198.0
 10
338.0
 20
200.0966324249944
 10
336.0
 20
203.34779215012716
 10
334.1887644660287
 20
206.0
 10
332.7048124647408
 20
208.0
 10
331.0950896912697
 20
210.0
 10
329.3587792745806
 20
212.0
 10
327.49034662016834
 20
214.0
 10
325.47919580541844
 20
216.0
 10
323.3089111312316
 20
218.0
 10
320.9559899592662
 20
220.0
 10
318.38788934388515
 20
222.0
 10
316.0
 20
223.7120243452102
 10
314.0
 20
225.05098747981836
 10
312.0
 20
226.29491672933332
 10
309.0259067416861
 20
228.0
 10
306.0
 20
229.56540341679118
 10
304.0
 20
230.510272962037
 10
300.4800526335445
 20
232.0
 10
298.0
 20
232.94726285953178
 10
294.80856389692025
 20
234.0
 10
292.0
 20
234.82796456313588
 10
288.0
 20
235.7871327028494
 10
286.0
 20
236.18715937128573
  0
LWPOLYLINE
  5
3D
330
17
100
AcDbEntity
  8
등고선-주곡선
100
AcDbPolyline
 90
245
 70
0
 38
18.0
 10
280.0
 20
228.16774264638966
 10
276.0
 20
228.80810956432745
 10
272.0
 20
229.18803964674015
 10
268.0
 20
229.3194845963578
 10
264.0
 20
229.2080199985255
 10
260.0
 20
228.85332008067394
 10
256.0
 20
228.24946764229443
 10
254.0
 20
227.85643593620526
 10
250.0
 20
226.89407015581506
 10
247.04474387898856
 20
226.0
 10
244.0
 20
224.96375191312137
 10
241.56247925646827
 20
224.0
 10
238.0
 20
222.44007169481466
 10
236.0
 20
221.46474513299913
 10
233.2470899275341
 20
220.0
 10
230.0
 20
218.11739133383142
 10
228.0
 20
216.86639417247162
 10
226.0
 20
215.53994493555157
 10
223.7993740338544
 20
214.0
 10
221.09244071599824
 20
212.0
 10
218.52939026718357
 20
210.0
 10
216.0793398518583
 20
208.0
 10
214.0
 20
206.24835088705967
 10
212.0
 20
204.52686020285103
 10
210.0
 20
202.7822911300059
 10
208.0
 20
201.03101938438652
 10
206.0
 20
199.29219913391745
 10
204.0
 20
197.58745266812704
 10
202.0
 20
195.94013178447986
 10
199.48976396629607
 20
194.0
 10
196.64773922966364
 20
192.0
 10
194.0
 20
190.36120121866745
 10
192.0
 20
189.30590191039843
 10
188.92377521470465
 20
188.0
 10
186.0
 20
187.06059384726896
 10
182.0
 20
186.27771490066596
 10
178.6617044916513
 20
186.0
 10
176.0
 20
185.9568073319181
 10
174.0
 20
186.02609280028176
 10
170.0
 20
186.35693204689002
 10
166.0
 20
186.8681566457804
 10
162.0
 20
187.48177770299264
 10
158.82786016006273
 20
188.0
 10
156.0
 20
188.46861223081288
 10
152.0
 20
189.10229868661511
 10
148.0
 20
189.66792162794357
 10
145.25655059779325
 20
190.0
 10
142.0
 20
190.34146428323567
 10
138.0
 20
190.642596127097
 10
134.0
 20
190.80363003586888
 10
130.0
 20
190.81294579108427
 10
126.0
 20
190.6601818133021
 10
122.0
 20
190.33520046225746
 10
119.24441951077999
 20
190.0
 10
116.0
 20
189.51456635075203
 10
112.0
 20
188.7308279983356
 10
109.00311936039418
 20
188.0
 10
106.0
 20
187.175006949353
 10
102.39685058547236
 20
186.0
 10
100.0
 20
185.13266006111834
 10
97.22347056426035
 20
184.0
 10
94.0
 20
182.55677485431366
 10
92.0
 20
181.56918270842885
 10
89.08667397697535
 20
180.0
 10
86.0
 20
178.18132798255849
 10
84.0
 20
176.90067368090433
 10
82.0
 20
175.53193132177537
 10
79.90486255729333
 20
174.0
 10
77.36349584310751
 20
172.0
 10
75.01352700094546
 20
170.0
 10
72.83298687870864
 20
168.0
 10
70.8035475833537
 20
166.0
 10
68.91000199253945
 20
164.0
 10
67.13982828303976
 20
162.0
 10
65.48282702805417
 20
160.0
 10
63.9308200342964
 20
158.0
 10
62.0
 20
155.31285295032438
 10
60.0
 20
152.26412028321246
 10
58.636197559186336
 20
150.0
 10
57.51609013348583
 20
148.0
 10
56.0
 20
145.04417049906192
 10
54.58357593543972
 20
142.0
 10
53.740660410878
 20
140.0
 10
52.23992258761312
 20
136.0
 10
51.578271292360775
 20
134.0
 10
50.428973496592526
 20
130.0
 10
49.939979610516495
 20
128.0
 10
49.116027932658874
 20
124.0
 10
48.50723141422658
 20
120.0
 10
48.105691832600876
 20
116.0
 10
47.98057075828364
 20
114.0
 10
47.87918897492937
 20
110.0
 10
47.98057480895906
 20
106.0
 10
48.105697918187296
 20
104.0
 10
48.50724221009936
 20
100.0
 10
49.11604444438328
 20
96.0
 10
49.940003296962146
 20
92.0
 10
50.4290013836519
 20
90.0
 10
51.5783105702103
 20
86.0
 10
52.23996851303271
 20
84.0
 10
53.740725534373716
 20
80.0
 10
54.583653184215486
 20
78.0
 10
56.0
 20
74.95603656977218
 10
57.51622453933083
 20
72.0
 10
58.63636052051858
 20
70.0
 10
60.0
 20
67.73620407497482
 10
62.0
 20
64.68755652508723
 10
63.931200852667835
 20
62.0
 10
65.48331048880439
 20
60.0
 10
67.14044736114268
 20
58.0
 10
68.91080331613821
 20
56.0
 10
70.80459815772473
 20
54.0
 10
72.83438432174506
 20
52.0
 10
75.01541512561477
 20
50.0
 10
77.36608836711721
 20
48.0
 10
79.90847914322752
 20
46.0
 10
82.0
 20
44.47145650226177
 10
84.0
 20
43.10348675841494
 10
86.0
 20
41.82378386401866
 10
89.09899739927407
 20
40.0
 10
92.0
 20
38.43992725755838
 10
94.0
 20
37.45439193948934
 10
97.25916509885971
 20
36.0
 10
100.0
 20
34.88700609529859
 10
102.4698435304137
 20
34.0
 10
106.0
 20
32.8593827941302
 10
109.18201385730096
 20
32.0
 10
112.0
 20
31.328972499843243
 10
116.0
 20
30.570116414572325
 10
120.0
 20
30.017681366199323
 10
122.0
 20
29.810790149175855
 10
126.0
 20
29.545152144706602
 10
130.0
 20
29.475131150647005
 10
134.0
 20
29.599473078202283
 10
138.0
 20
29.919906304303666
 10
140.0
 20
30.15075360937454
 10
144.0
 20
30.758000533364868
 10
148.0
 20
31.57321139969297
 10
150.0
 20
32.060984903752725
 10
154.0
 20
33.18325560867925
 10
156.47741524716344
 20
34.0
 10
160.0
 20
35.291662209844226
 10
162.0
 20
36.115104502930095
 10
166.0
 20
37.94051098846008
 10
168.0
 20
38.94617240467625
 10
170.0
 20
40.02875898545822
 10
173.35648918313896
 20
42.0
 10
176.0
 20
43.70077405122542
 10
178.0
 20
45.08209718676924
 10
180.0
 20
46.55160602265804
 10
182.0
 20
48.11238619174069
 10
184.27346053624592
 20
50.0
 10
186.5264646740897
 20
52.0
 10
188.63806982837383
 20
54.0
 10
190.6254205772354
 20
56.0
 10
192.50269404521478
 20
58.0
 10
194.28169062531094
 20
60.0
 10
196.0
 20
62.03298556981575
 10
198.0
 20
64.51936164483621
 10
200.0
 20
67.13835547568497
 10
202.0
 20
69.88272990808622
 10
203.49684368607168
 20
72.0
 10
204.8736312418592
 20
74.0
 10
206.21892995390186
 20
76.0
 10
208.0
 20
78.66786499271022
 10
210.0
 20
81.64261423224325
 10
211.62850594072094
 20
84.0
 10
213.0570842471088
 20
86.0
 10
214.54505002000295
 20
88.0
 10
216.12522322736555
 20
90.0
 10
218.0
 20
92.16277645575906
 10
220.0
 20
94.21019778099809
 10
222.00511263620248
 20
96.0
 10
224.7064731148323
 20
98.0
 10
228.0
 20
99.93190917891042
 10
230.0
 20
100.84910288786101
 10
233.1231598452181
 20
102.0
 10
236.0
 20
102.81080070857604
 10
240.0
 20
103.65235352677102
 10
242.10149870203128
 20
104.0
 10
246.0
 20
104.51005342031222
 10
250.0
 20
104.94284914105981
 10
254.0
 20
105.34456006068392
 10
258.0
 20
105.76400784744438
 10
260.05380332554194
 20
106.0
 10
264.0
 20
106.49124200008272
 10
268.0
 20
107.09373321727287
 10
272.0
 20
107.83170335694065
 10
274.0
 20
108.25006714344839
 10
278.0
 20
109.20711169155481
 10
280.7956015730121
 20
110.0
 10
284.0
 20
111.00137585748296
 10
286.76288491956353
 20
112.0
 10
290.0
 20
113.2906374028004
 10
292.0
 20
114.18422351700063
 10
295.6671271225852
 20
116.0
 10
298.0
 20
117.28228579276252
 10
300.0
 20
118.48133548431109
 10
302.3359920278652
 20
120.0
 10
305.13741007403223
 20
122.0
 10
307.6619877038716
 20
124.0
 10
309.9540365614702
 20
126.0
 10
312.0
 20
127.95177126550551
 10
313.9672732650088
 20
130.0
 10
315.73241749049356
 20
132.0
 10
317.3556730578726
 20
134.0
 10
318.84508319067885
 20
136.0
 10
320.20435720070464
 20
138.0
 10
322.0
 20
140.9357954983468
 10
323.66294065179864
 20
144.0
 10
324.6245622399135
 20
146.0
 10
326.0
 20
149.3286870716996
 10
326.97361053864466
 20
152.0
 10
328.0
 20
155.5714969574143
 10
328.5930863346283
 20
158.0
 10
329.30065050519846
 20
162.0
 10
329.7106999110638
 20
166.0
 10
329.8411459815531
 20
170.0
 10
329.69740557208553
 20
174.0
 10
329.27288277576747
 20
178.0
 10
328.5483281962771
 20
182.0
 10
328.0
 20
184.22653317800058
 10
326.899818140606
 20
188.0
 10
326.0
 20
190.44284823069054
 10
324.5082598422524
 20
194.0
 10
323.53282650617683
 20
196.0
 10
322.0
 20
198.7819133507491
 10
320.0
 20
201.99054084718276
 10
318.6032752741322
 20
204.0
 10
317.0755267077782
 20
206.0
 10
315.40418381859615
 20
208.0
 10
313.57778723970375
 20
210.0
 10
311.5785481469537
 20
212.0
 10
309.3808014390028
 20
214.0
 10
306.94869190941967
 20
216.0
 10
304.23272514232934
 20
218.0
 10
302.0
 20
219.48682342309223
 10
300.0
 20
220.70426628112867
 10
297.6503462082094
 20
222.0
 10
294.0
 20
223.7767465608956
 10
292.0
 20
224.63270965043048
 10
288.27734428359696
 20
226.0
 10
286.0
 20
226.7246876491039
 10
282.0
 20
227.75383222077954
 10
280.0
 20
228.16774264638966
  0
LWPOLYLINE
  5
3E
330
17
100
AcDbEntity
  8
등고선-계곡선
100
AcDbPolyline
 90
232
 70
0
 38
20.0
 10
272.0
 20
222.06592033254157
 10
268.0
 20
222.36835776271582
 10
264.0
 20
222.3853713790056
 10
260.0
 20
222.12105151655365
 10
258.0
 20
221.88600624165537
 10
254.0
 20
221.21182654786867
 10
250.0
 20
220.24710376934092
 10
248.0
 20
219.6590886134002
 10
244.0
 20
218.26065930642673
 10
242.0
 20
217.450220798176
 10
238.83934405696155
 20
216.0
 10
236.0
 20
214.5458689024909
 10
234.0
 20
213.416298639922
 10
231.68272781516802
 20
212.0
 10
228.67875871574353
 20
210.0
 10
226.0
 20
208.05642490747286
 10
224.0
 20
206.50337615947834
 10
222.0
 20
204.86536008244644
 10
220.0
 20
203.14590013692944
 10
218.0
 20
201.35000654511504
 10
216.0
 20
199.48500942534542
 10
214.0
 20
197.56146875855376
 10
212.0
 20
195.59407129751952
 10
210.0
 20
193.60236482872267
 10
208.0
 20
191.61112317888006
 10
206.0
 20
189.65010646931276
 10
204.0
 20
187.75301384691898
 10
202.0
 20
185.95554800996263
 10
199.6186659056347
 20
184.0
 10
196.82281016958135
 20
182.0
 10
194.0
 20
180.33131526426376
 10
192.0
 20
179.40449019241214
 10
188.0
 20
178.13239374624564
 10
186.0
 20
177.7573810001932
 10
182.0
 20
177.44844924428517
 10
178.0
 20
177.60722590251456
 10
174.72480342003547
 20
178.0
 10
172.0
 20
178.43712343451318
 10
168.0
 20
179.23019701309812
 10
164.5156964730868
 20
180.0
 10
162.0
 20
180.574688861605
 10
158.0
 20
181.48597369363546
 10
155.6549643192677
 20
182.0
 10
152.0
 20
182.76379051196224
 10
148.0
 20
183.50497695018194
 10
144.85939376178897
 20
184.0
 10
142.0
 20
184.39248460759336
 10
138.0
 20
184.8095876071346
 10
134.0
 20
185.06740242130036
 10
130.0
 20
185.15621075504538
 10
126.0
 20
185.06715010160804
 10
122.0
 20
184.7912401161066
 10
118.0
 20
184.31857173411944
 10
115.9730734586298
 20
184.0
 10
112.0
 20
183.23174658445518
 10
108.0
 20
182.2336250038784
 10
106.0
 20
181.6516498303767
 10
102.0
 20
180.30795313525255
 10
100.0
 20
179.54394362407984
 10
96.40927410323911
 20
178.0
 10
94.0
 20
176.8513155905155
 10
92.0
 20
175.80853997809692
 10
88.84004011688705
 20
174.0
 10
86.0
 20
172.2080481524676
 10
84.0
 20
170.83313208338154
 10
82.0
 20
169.35879957274074
 10
80.0
 20
167.7789250653619
 10
77.90360040403951
 20
166.0
 10
75.71975641201776
 20
164.0
 10
73.69722797209918
 20
162.0
 10
71.81917424180054
 20
160.0
 10
70.0
 20
157.91392703378216
 10
68.0
 20
155.4249178753061
 10
66.0
 20
152.70098876474955
 10
64.19170457080418
 20
150.0
 10
62.96004921352537
 20
148.0
 10
61.81347796669008
 20
146.0
 10
60.0
 20
142.4984639184277
 10
58.83721909108732
 20
140.0
 10
57.99134967017285
 20
138.0
 10
56.49520252778801
 20
134.0
 10
55.84500081280434
 20
132.0
 10
54.72456798888576
 20
128.0
 10
54.0
 20
124.75807227963006
 10
53.48632727857418
 20
122.0
 10
52.94170501429589
 20
118.0
 10
52.61774385388651
 20
114.0
 10
52.51022529917293
 20
110.0
 10
52.6177509911542
 20
106.0
 10
52.94171996558618
 20
102.0
 10
53.48635142305471
 20
98.0
 10
54.0
 20
95.24208071983747
 10
54.7246105258902
 20
92.0
 10
55.84506109997081
 20
88.0
 10
56.49527393817049
 20
86.0
 10
57.99145098166705
 20
82.0
 10
58.83734054231434
 20
80.0
 10
60.0
 20
77.50184537033395
 10
61.81369109242312
 20
74.0
 10
62.960310481327305
 20
72.0
 10
64.19202469186301
 20
70.0
 10
66.0
 20
67.2996213103617
 10
68.0
 20
64.5758459795634
 10
70.0
 20
62.08702358710172
 10
71.8202136289399
 20
60.0
 10
73.69859427823732
 20
58.0
 10
75.72157725955333
 20
56.0
 10
77.90606372549976
 20
54.0
 10
80.0
 20
52.22377838751434
 10
82.0
 20
50.644517506704815
 10
84.0
 20
49.17093657802567
 10
86.0
 20
47.79694257947634
 10
88.85108928311118
 20
46.0
 10
92.0
 20
44.20040988052151
 10
94.0
 20
43.15962061742573
 10
96.44000582696006
 20
42.0
 10
100.0
 20
40.47536916904782
 10
102.0
 20
39.71562416927331
 10
106.0
 20
38.38214744348384
 10
108.0
 20
37.80758832839821
 10
112.0
 20
36.826971885235245
 10
116.0
 20
36.078585664023734
 10
118.0
 20
35.78287786237161
 10
122.0
 20
35.35210624634241
 10
126.0
 20
35.13480088644988
 10
130.0
 20
35.12744657661881
 10
134.0
 20
35.329785403752595
 10
138.0
 20
35.74480004856177
 10
140.0
 20
36.03315819217564
 10
144.0
 20
36.76384334271075
 10
148.0
 20
37.724336491989476
 10
150.0
 20
38.28948113921699
 10
154.0
 20
39.597762545201846
 10
156.0
 20
40.34531058522689
 10
159.9187855961867
 20
42.0
 10
162.0
 20
42.978928495766866
 10
164.0
 20
44.00024417730547
 10
167.56081038550832
 20
46.0
 10
170.0
 20
47.51234532015482
 10
172.0
 20
48.850105882553734
 10
174.0
 20
50.280250654487034
 10
176.24523081848088
 20
52.0
 10
178.6671665145089
 20
54.0
 10
180.91192765206495
 20
56.0
 10
183.00307073695822
 20
58.0
 10
184.95967676370205
 20
60.0
 10
186.7972504277355
 20
62.0
 10
188.52840988192526
 20
64.0
 10
190.1634208272809
 20
66.0
 10
192.0
 20
68.37996797732599
 10
194.0
 20
71.13487292322604
 10
195.95941768495462
 20
74.0
 10
197.26902312323512
 20
76.0
 10
198.526981873484
 20
78.0
 10
200.0
 20
80.43070255750871
 10
202.0
 20
83.8130593148884
 10
203.2816371276843
 20
86.0
 10
204.4382862706019
 20
88.0
 10
206.0
 20
90.68602815911653
 10
208.0
 20
93.98432458724209
 10
209.30416847024372
 20
96.0
 10
210.66643012607483
 20
98.0
 10
212.13392137527794
 20
100.0
 10
214.0
 20
102.2548251000044
 10
216.0
 20
104.31913848040661
 10
218.0
 20
106.04456165200928
 10
220.90929609795384
 20
108.0
 10
224.0
 20
109.53413301332861
 10
226.0
 20
110.27039104767904
 10
230.0
 20
111.29961330516363
 10
234.0
 20
111.9240460174167
 10
236.0
 20
112.12951038738242
 10
240.0
 20
112.40657238158713
 10
244.0
 20
112.58526295028304
 10
248.0
 20
112.73550463681414
 10
252.0
 20
112.91073535381625
 10
256.0
 20
113.15331599759415
 10
260.0
 20
113.49854276635462
 10
264.0
 20
113.97772652178303
 10
266.0
 20
114.26818255333836
 10
270.0
 20
114.98081587714135
 10
274.0
 20
115.8964370496082
 10
276.0
 20
116.42812604955766
 10
280.0
 20
117.6758706096659
 10
282.0
 20
118.39491499579331
 10
285.8874967938521
 20
120.0
 10
288.0
 20
120.98631171167509
 10
290.0
 20
122.01742843010464
 10
293.4356342351528
 20
124.0
 10
296.0
 20
125.67669648577976
 10
298.0
 20
127.12152865524973
 10
300.0
 20
128.70053680518973
 10
302.0
 20
130.4289842310678
 10
304.0
 20
132.3281901763186
 10
306.0
 20
134.42723045455904
 10
308.0
 20
136.76532048413128
 10
310.0
 20
139.3951930681144
 10
311.7562000436478
 20
142.0
 10
312.96221924320395
 20
144.0
 10
314.04059145835276
 20
146.0
 10
315.8994763608059
 20
150.0
 10
316.68928221477256
 20
152.0
 10
317.9707567624417
 20
156.0
 10
318.4938525796892
 20
158.0
 10
319.27723371195384
 20
162.0
 10
319.7315806387732
 20
166.0
 10
319.874793739226
 20
170.0
 10
319.7121223210564
 20
174.0
 10
319.2365576997506
 20
178.0
 10
318.4282183069626
 20
182.0
 10
317.8940464346759
 20
184.0
 10
316.57808179990997
 20
188.0
 10
315.7722291848172
 20
190.0
 10
314.0
 20
193.73295058019607
 10
312.75429316250126
 20
196.0
 10
311.51535352514026
 20
198.0
 10
310.0
 20
200.1963633491339
 10
308.0
 20
202.78031060591732
 10
306.0
 20
205.07051022229857
 10
304.0
 20
207.11832593010845
 10
302.0
 20
208.961666007239
 10
300.0
 20
210.62827515614518
 10
298.0
 20
212.1380448202977
 10
295.2283983805404
 20
214.0
 10
292.0
 20
215.87989194472755
 10
290.0
 20
216.9027601142596
 10
287.566708595136
 20
218.0
 10
284.0
 20
219.3784293588267
 10
282.0
 20
220.0211154605568
 10
278.0
 20
221.07546959269374
 10
274.0
 20
221.80963748721456
 10
272.0
 20
222.06592033254157
  0
LWPOLYLINE
  5
3F
330
17
100
AcDbEntity
  8
등고선-주곡선
100
AcDbPolyline
 90
222
 70
0
 38
22.0
 10
268.0
 20
216.03236006484212
 10
264.0
 20
216.15960734007342
 10
260.4906202678329
 20
216.0
 10
258.0
 20
215.75426739741883
 10
254.0
 20
215.09020217909014
 10
250.0
 20
214.10030788295495
 10
248.0
 20
213.48469379786602
 10
244.01228373572732
 20
212.0
 10
242.0
 20
211.12159244733368
 10
239.70231657139033
 20
210.0
 10
236.0964797065237
 20
208.0
 10
234.0
 20
206.69012721001133
 10
232.0
 20
205.33493091349368
 10
230.0
 20
203.87640446177556
 10
227.62236055224355
 20
202.0
 10
225.28123555121482
 20
200.0
 10
223.10240857833955
 20
198.0
 10
221.05693445530792
 20
196.0
 10
219.12106662167193
 20
194.0
 10
217.27489930061526
 20
192.0
 10
215.50120199211534
 20
190.0
 10
213.7843327790113
 20
188.0
 10
212.0
 20
185.86948551917732
 10
210.0
 20
183.45451039798837
 10
208.0
 20
181.05689673218066
 10
206.0
 20
178.73189086582124
 10
204.0
 20
176.53985281081603
 10
202.0
 20
174.54050626087587
 10
200.0
 20
172.78636699174442
 10
198.0
 20
171.31688145685263
 10
195.6706385566387
 20
170.0
 10
192.0
 20
168.63658387891707
 10
188.0
 20
168.08421825059946
 10
184.0
 20
168.22487522808683
 10
180.0
 20
168.84600641027126
 10
176.0
 20
169.78271164699635
 10
174.0
 20
170.32702334511603
 10
170.0
 20
171.5072974163274
 10
168.0
 20
172.12333636739845
 10
164.0
 20
173.3672804713143
 10
161.93567687196304
 20
174.0
 10
158.0
 20
175.16786427933465
 10
154.99832971471864
 20
176.0
 10
152.0
 20
176.77688396819633
 10
148.0
 20
177.6956359435463
 10
146.0
 20
178.1011500760322
 10
142.0
 20
178.80002524213995
 10
138.0
 20
179.32842354338544
 10
134.0
 20
179.677220700521
 10
130.0
 20
179.8387276927766
 10
126.0
 20
179.80561259448714
 10
122.0
 20
179.5700176890307
 10
118.0
 20
179.12281626025182
 10
114.0
 20
178.45295949788454
 10
111.87351981145729
 20
178.0
 10
108.0
 20
177.0155221330327
 10
104.76377482918002
 20
176.0
 10
102.0
 20
175.01544634273924
 10
99.5109656178422
 20
174.0
 10
96.0
 20
172.39338167891984
 10
94.0
 20
171.3681111175022
 10
91.56106048594187
 20
170.0
 10
88.34178410048636
 20
168.0
 10
86.0
 20
166.39051773889736
 10
84.0
 20
164.8972980939072
 10
82.0
 20
163.28837035188053
 10
80.0
 20
161.55333170876557
 10
78.0
 20
159.67878729442387
 10
76.0
 20
157.64773967927124
 10
74.0
 20
155.43879780003888
 10
72.0
 20
153.025146589029
 10
70.0
 20
150.37319534548817
 10
68.36997191601955
 20
148.0
 10
67.10577354994123
 20
146.0
 10
65.933455545602
 20
144.0
 10
64.0
 20
140.31016668310102
 10
62.92333195716399
 20
138.0
 10
62.0
 20
135.8056448813856
 10
60.5950929079341
 20
132.0
 10
59.95864396739743
 20
130.0
 10
58.87839587265784
 20
126.0
 10
58.05259962324456
 20
122.0
 10
57.72945052658242
 20
120.0
 10
57.26223785762707
 20
116.0
 10
57.03015191436638
 20
112.0
 10
57.03015805872761
 20
108.0
 10
57.26225687232779
 20
104.0
 10
57.72948417874614
 20
100.0
 10
58.05264137711349
 20
98.0
 10
58.878458535957854
 20
94.0
 10
59.95873387114028
 20
90.0
 10
60.59520055486309
 20
88.0
 10
62.0
 20
84.19473948522193
 10
62.92351751697091
 20
82.0
 10
64.0
 20
79.6902962962253
 10
65.93378488896603
 20
76.0
 10
67.10618091963093
 20
74.0
 10
68.37047631915523
 20
72.0
 10
70.0
 20
69.62771135332683
 10
72.0
 20
66.9759869881734
 10
74.0
 20
64.56261044902034
 10
76.0
 20
62.354001632133674
 10
78.0
 20
60.323358461392765
 10
80.0
 20
58.44930585240414
 10
82.0
 20
56.71486609038415
 10
84.0
 20
55.10666870474002
 10
86.0
 20
53.6143411818204
 10
88.3512431970026
 20
52.0
 10
91.57539774788918
 20
50.0
 10
94.0
 20
48.64258267425135
 10
96.0
 20
47.619654604319095
 10
99.55323779713216
 20
46.0
 10
102.0
 20
45.00757377859783
 10
104.8544066836147
 20
44.0
 10
108.0
 20
43.024713103152
 10
112.0
 20
42.02760430059677
 10
114.0
 20
41.61679627716087
 10
118.0
 20
40.97629264828016
 10
122.0
 20
40.570294735574194
 10
126.0
 20
40.39231576695282
 10
130.0
 20
40.43945380518612
 10
134.0
 20
40.712306290048765
 10
138.0
 20
41.214972001505174
 10
142.0
 20
41.9551386478543
 10
144.0
 20
42.41124555768964
 10
148.0
 20
43.51302793686019
 10
150.0
 20
44.16153300439308
 10
154.0
 20
45.65513498641536
 10
156.0
 20
46.50693506156376
 10
159.14072443072388
 20
48.0
 10
162.0
 20
49.516502661702205
 10
164.0
 20
50.68228603055591
 10
166.0951793499698
 20
52.0
 10
169.00331956944083
 20
54.0
 10
171.64218486889644
 20
56.0
 10
174.0
 20
57.952417578955824
 10
176.0
 20
59.7425875022427
 10
178.0
 20
61.665724142425255
 10
180.0
 20
63.733211130011284
 10
182.0
 20
65.9578625145264
 10
183.71397662489795
 20
68.0
 10
185.29118063973084
 20
70.0
 10
186.77681241979118
 20
72.0
 10
188.17763101522516
 20
74.0
 10
190.0
 20
76.77468568591065
 10
191.97727685523728
 20
80.0
 10
193.13764607990606
 20
82.0
 10
194.24101189877848
 20
84.0
 10
196.0
 20
87.3469118895144
 10
197.35069708778283
 20
90.0
 10
198.33116212666914
 20
92.0
 10
200.0
 20
95.47618014161492
 10
201.22733529795224
 20
98.0
 10
202.19169902003537
 20
100.0
 10
204.0
 20
103.60587305911606
 10
205.30568579075629
 20
106.0
 10
206.46373238272758
 20
108.0
 10
208.0
 20
110.4084629484651
 10
210.0
 20
113.03762549740614
 10
212.0
 20
115.14248073204581
 10
214.0
 20
116.77994715671583
 10
216.0
 20
118.02059771870933
 10
220.0
 20
119.60125729337852
 10
222.0
 20
120.05854338593973
 10
226.0
 20
120.5315787590535
 10
230.0
 20
120.6247632797625
 10
234.0
 20
120.51134057058646
 10
238.0
 20
120.306585044547
 10
242.0
 20
120.08981505675669
 10
244.0
 20
119.99515465769531
 10
248.0
 20
119.85924084989031
 10
252.0
 20
119.8290749552148
 10
256.0
 20
119.93572941051154
 10
258.0
 20
120.0480417070372
 10
262.0
 20
120.40358207429473
 10
266.0
 20
120.95846830566106
 10
270.0
 20
121.74034082844128
 10
272.0
 20
122.22221980812382
 10
276.0
 20
123.38486742168004
 10
278.0
 20
124.07876558770755
 10
282.0
 20
125.70292289135037
 10
284.0
 20
126.64840975839938
 10
286.54496234900466
 20
128.0
 10
289.8283156533378
 20
130.0
 10
292.0
 20
131.51111730742892
 10
294.0
 20
133.0564088318963
 10
296.0
 20
134.76748042055985
 10
298.0
 20
136.67122858580677
 10
300.0
 20
138.8048193663455
 10
302.0
 20
141.21927746188183
 10
304.0
 20
143.98475857937515
 10
305.28017585318776
 20
146.0
 10
306.4126043790237
 20
148.0
 10
308.0
 20
151.29016460072845
 10
309.10446196509656
 20
154.0
 10
310.0
 20
156.75055703652444
 10
310.8550932359173
 20
160.0
 10
311.54830034059165
 20
164.0
 10
311.88197466639673
 20
168.0
 10
311.8681526793098
 20
172.0
 10
311.5055237613991
 20
176.0
 10
310.7792698958822
 20
180.0
 10
310.0
 20
182.89661015267882
 10
308.967035173376
 20
186.0
 10
308.0
 20
188.3294123796857
 10
306.18067140771336
 20
192.0
 10
305.0068329123338
 20
194.0
 10
303.6862014404427
 20
196.0
 10
302.0
 20
198.26222284459845
 10
300.0
 20
200.619215514762
 10
298.0
 20
202.69272457148034
 10
296.0
 20
204.5319698572198
 10
294.0
 20
206.1724042232179
 10
291.4649883636255
 20
208.0
 10
288.2186022835649
 20
210.0
 10
286.0
 20
211.17214744115827
 10
284.0
 20
212.10224159743933
 10
280.0
 20
213.64322576748538
 10
278.0
 20
214.26453432641694
 10
274.0
 20
215.2323256820816
 10
270.0
 20
215.8486645814716
 10
268.0
 20
216.03236006484212
  0
LWPOLYLINE
  5
40
330
17
100
AcDbEntity
  8
등고선-주곡선
100
AcDbPolyline
 90
219
 70
0
 38
24.0
 10
266.0
 20
210.14583950073853
 10
262.0
 20
210.19547334427085
 10
259.169204300869
 20
210.0
 10
256.0
 20
209.58998926152924
 10
252.0
 20
208.7311828956517
 10
249.50860150954426
 20
208.0
 10
246.0
 20
206.7330019420551
 10
244.0
 20
205.86935166415424
 10
240.32340559164595
 20
204.0
 10
238.0
 20
202.6282005141303
 10
236.0
 20
201.31616840134024
 10
234.0
 20
199.88252742138613
 10
231.62290294198712
 20
198.0
 10
229.33589702957156
 20
196.0
 10
227.24757561108407
 20
194.0
 10
225.32434678065178
 20
192.0
 10
223.54072544456326
 20
190.0
 10
221.8776100640505
 20
188.0
 10
220.0
 20
185.56744985965057
 10
218.0
 20
182.78193508658424
 10
216.12404330571988
 20
180.0
 10
214.84775471283902
 20
178.0
 10
213.63015259449926
 20
176.0
 10
212.0
 20
173.18730309861732
 10
210.16903018465132
 20
170.0
 10
209.02798706335466
 20
168.0
 10
207.90409617019304
 20
166.0
 10
206.0
 20
162.7853849548149
 10
204.0564654193247
 20
160.0
 10
202.29119504265591
 20
158.0
 10
200.0
 20
156.20311647656106
 10
198.0
 20
155.36939810136377
 10
194.0
 20
155.11355267975614
 10
190.0
 20
155.93911256530004
 10
188.0
 20
156.55787664816327
 10
184.19049017442325
 20
158.0
 10
182.0
 20
158.89418485424378
 10
179.48494565334744
 20
160.0
 10
176.0
 20
161.53446154973244
 10
174.0
 20
162.42964173703245
 10
170.4726855228911
 20
164.0
 10
168.0
 20
165.06471172106092
 10
165.7908216682597
 20
166.0
 10
162.0
 20
167.5277367213472
 10
160.0
 20
168.29278721966963
 10
156.0
 20
169.7209251914724
 10
154.0
 20
170.3798475950293
 10
150.0
 20
171.57580171201488
 10
148.0
 20
172.1089216234307
 10
144.0
 20
173.04238266685613
 10
140.0
 20
173.7834239684303
 10
138.0
 20
174.08038491921286
 10
134.0
 20
174.52487618486597
 10
130.0
 20
174.75941058250362
 10
126.0
 20
174.77805324471598
 10
122.0
 20
174.5739059038905
 10
118.0
 20
174.13841761260372
 10
116.0
 20
173.83248837522504
 10
112.0
 20
173.0376114945941
 10
108.06464503776296
 20
172.0
 10
106.0
 20
171.35576856743128
 10
102.29603626710639
 20
170.0
 10
100.0
 20
169.0389584171536
 10
97.77757822128248
 20
168.0
 10
94.0
 20
166.00214031781152
 10
92.0
 20
164.81003049328444
 10
90.0
 20
163.51758641397663
 10
87.84010825391844
 20
162.0
 10
85.2542480442591
 20
160.0
 10
82.90982800790633
 20
158.0
 10
80.77335943615185
 20
156.0
 10
78.81782703377037
 20
154.0
 10
77.0214894968924
 20
152.0
 10
75.36693711016514
 20
150.0
 10
73.84034900740768
 20
148.0
 10
72.0
 20
145.34291384587436
 10
70.0
 20
142.10335287610755
 10
68.83970401455035
 20
140.0
 10
67.82758905175473
 20
138.0
 10
66.0567929195319
 20
134.0
 10
65.28997762577049
 20
132.0
 10
64.0
 20
128.06897566100994
 10
63.42949252465035
 20
126.0
 10
62.53561650196346
 20
122.0
 10
62.0
 20
118.67153155028777
 10
61.685342334119476
 20
116.0
 10
61.43525113889307
 20
112.0
 10
61.43526165230072
 20
108.0
 10
61.68537487564028
 20
104.0
 10
62.0
 20
101.32881338215503
 10
62.535689260495
 20
98.0
 10
63.42960162832386
 20
94.0
 10
64.0
 20
91.93145469390734
 10
65.29016863801641
 20
88.0
 10
66.05702193013194
 20
86.0
 10
67.82792426302538
 20
82.0
 10
68.84011543826666
 20
80.0
 10
70.0
 20
77.89751119327411
 10
72.0
 20
74.65818634724074
 10
73.84132329693774
 20
72.0
 10
75.36818776003595
 20
70.0
 10
77.02311210755045
 20
68.0
 10
78.81996130003606
 20
66.0
 10
80.7762135923211
 20
64.0
 10
82.91371772351384
 20
62.0
 10
85.25965846514316
 20
60.0
 10
87.84779318977085
 20
58.0
 10
90.0
 20
56.489483732349434
 10
92.0
 20
55.19857968653392
 10
94.0149745517518
 20
54.0
 10
97.8079609874048
 20
52.0
 10
100.0
 20
50.9797181214467
 10
102.35637579100849
 20
50.0
 10
106.0
 20
48.677027386848536
 10
108.20810821214236
 20
48.0
 10
112.0
 20
47.019345888637034
 10
116.0
 20
46.248831934167036
 10
118.0
 20
45.95965055503473
 10
122.0
 20
45.56510197349302
 10
126.0
 20
45.418172506280534
 10
130.0
 20
45.51643573284481
 10
134.0
 20
45.861280170184926
 10
136.0
 20
46.12624157773241
 10
140.0
 20
46.84395415217465
 10
144.0
 20
47.82576930305288
 10
146.0
 20
48.41662533127396
 10
150.0
 20
49.81221955230783
 10
152.0
 20
50.619930632666616
 10
155.03080444134724
 20
52.0
 10
158.0
 20
53.524964832796655
 10
160.0
 20
54.666223634252766
 10
162.1512408588468
 20
56.0
 10
165.0725721668028
 20
58.0
 10
167.7032461307233
 20
60.0
 10
170.0
 20
61.92003690878912
 10
172.0
 20
63.73863778997763
 10
174.0
 20
65.70540075584165
 10
176.0
 20
67.83539823815062
 10
177.87772529072504
 20
70.0
 10
179.48940786003433
 20
72.0
 10
180.99524060519718
 20
74.0
 10
182.40387808888724
 20
76.0
 10
184.0
 20
78.43843614547885
 10
186.0
 20
81.75787086147506
 10
187.25228104656017
 20
84.0
 10
188.2973190438418
 20
86.0
 10
190.0
 20
89.51245834565381
 10
191.13461180269226
 20
92.0
 10
192.0
 20
94.03821628957128
 10
193.59897628998615
 20
98.0
 10
194.35878124385027
 20
100.0
 10
195.80738409903628
 20
104.0
 10
196.51179197009037
 20
106.0
 10
197.87430557902275
 20
110.0
 10
198.56290762477846
 20
112.0
 10
199.93572325252347
 20
116.0
 10
200.67149800085375
 20
118.0
 10
202.0
 20
121.48714809009593
 10
203.14220864993948
 20
124.0
 10
204.148514940394
 20
126.0
 10
206.0
 20
128.82820413380563
 10
208.0
 20
130.7821379406226
 10
210.39185741513327
 20
132.0
 10
214.0
 20
132.59566184549598
 10
218.0
 20
132.25643739054644
 10
220.0
 20
131.90320616698662
 10
224.0
 20
131.03835363891912
 10
228.0
 20
130.08271776794177
 10
230.0
 20
129.61091848481144
 10
234.0
 20
128.71205652281236
 10
237.5264726850754
 20
128.0
 10
240.0
 20
127.56029819832654
 10
244.0
 20
126.97022413877968
 10
248.0
 20
126.54931905633534
 10
252.0
 20
126.31719349554339
 10
256.0
 20
126.29194785264627
 10
260.0
 20
126.49215082016364
 10
264.0
 20
126.9384837229294
 10
268.0
 20
127.65525069808905
 10
270.0
 20
128.1235949928931
 10
274.0
 20
129.29906691058633
 10
276.0
 20
130.017312476307
 10
280.0
 20
131.7460248991612
 10
282.0
 20
132.77418798487804
 10
284.12734625675375
 20
134.0
 10
287.1261822621493
 20
136.0
 10
289.6984090069196
 20
138.0
 10
291.930040971429
 20
140.0
 10
293.8842521253331
 20
142.0
 10
295.6071084303586
 20
144.0
 10
297.1316685262206
 20
146.0
 10
298.48090774954284
 20
148.0
 10
300.0
 20
150.6192468289827
 10
301.6291499056315
 20
154.0
 10
302.41704929133033
 20
156.0
 10
303.6429230659159
 20
160.0
 10
304.0904518984851
 20
162.0
 10
304.6777334101806
 20
166.0
 10
304.85807781417014
 20
170.0
 10
304.6370314440669
 20
174.0
 10
304.00505766066567
 20
178.0
 10
303.5334365633555
 20
180.0
 10
302.2476791271848
 20
184.0
 10
301.42438510042615
 20
186.0
 10
300.0
 20
188.86899515262658
 10
298.12064577194906
 20
192.0
 10
296.69359323889086
 20
194.0
 10
295.06898194419233
 20
196.0
 10
293.21413700396704
 20
198.0
 10
291.08097410449636
 20
200.0
 10
288.59956102728677
 20
202.0
 10
286.0
 20
203.78530927557404
 10
284.0
 20
204.9664595831807
 10
282.0
 20
206.00705444317234
 10
278.0
 20
207.69263871665723
 10
276.0
 20
208.3597175024733
 10
272.0
 20
209.3712905858291
 10
268.0
 20
209.98274247323326
 10
266.0
 20
210.14583950073853
  0
LWPOLYLINE
  5
41
330
17
100
AcDbEntity
  8
등고선-주곡선
100
AcDbPolyline
 90
123
 70
0
 38
26.0
 10
142.0
 20
168.20798486149926
 10
138.0
 20
168.9764796391419
 10
134.0
 20
169.5154473294736
 10
130.0
 20
169.82151691538988
 10
126.0
 20
169.89045697867374
 10
122.0
 20
169.7165148787315
 10
118.0
 20
169.29182690756437
 10
114.0
 20
168.6058647967428
 10
111.3742133187287
 20
168.0
 10
108.0
 20
167.05954018003646
 10
104.9212090159122
 20
166.0
 10
102.0
 20
164.83695409106204
 10
100.0
 20
163.93132558776404
 10
96.27770610531293
 20
162.0
 10
94.0
 20
160.65452007852258
 10
92.0
 20
159.35479573053058
 10
90.0
 20
157.9398162114243
 10
87.52081333413327
 20
156.0
 10
85.21589192419752
 20
154.0
 10
83.12791967575609
 20
152.0
 10
81.22753012198889
 20
150.0
 10
79.49135534279255
 20
148.0
 10
77.90088684970758
 20
146.0
 10
76.0
 20
143.3427824725896
 10
74.0
 20
140.18285301904012
 10
72.77586729629273
 20
138.0
 10
71.75499926683545
 20
136.0
 10
70.0
 20
132.02893472610435
 10
69.23392044450159
 20
130.0
 10
68.0
 20
126.13245495135307
 10
67.43962994836329
 20
124.0
 10
66.61435828465017
 20
120.0
 10
66.07013425198512
 20
116.0
 10
65.90115848683435
 20
114.0
 10
65.766388050943
 20
110.0
 10
65.90119455505742
 20
106.0
 10
66.0701896095558
 20
104.0
 10
66.61445778420736
 20
100.0
 10
67.43978474341766
 20
96.0
 10
68.0
 20
93.86819035015627
 10
69.23419959295933
 20
90.0
 10
70.0
 20
87.97188124349056
 10
71.75549799367026
 20
84.0
 10
72.77648411596182
 20
82.0
 10
74.0
 20
79.81843314788698
 10
76.0
 20
76.65885242606277
 10
77.90238801690525
 20
74.0
 10
79.49330540434225
 20
72.0
 10
81.23009571051591
 20
70.0
 10
83.1313492206157
 20
68.0
 10
85.22056307560372
 20
66.0
 10
87.52730963559496
 20
64.0
 10
90.0
 20
62.06710888501383
 10
92.0
 20
60.65361829713313
 10
94.0
 20
59.35569954511438
 10
96.30100045482949
 20
58.0
 10
100.0
 20
56.08697376945575
 10
102.0
 20
55.18515002016237
 10
105.00083829241309
 20
54.0
 10
108.0
 20
52.9791940321119
 10
111.58448228389531
 20
52.0
 10
114.0
 20
51.461165469575576
 10
118.0
 20
50.80384092865661
 10
122.0
 20
50.41932778316116
 10
126.0
 20
50.30144845731725
 10
130.0
 20
50.448208756623146
 10
134.0
 20
50.86172677177638
 10
138.0
 20
51.54826068511633
 10
140.0115718699574
 20
52.0
 10
144.0
 20
53.109795933539125
 10
146.59505207569302
 20
54.0
 10
150.0
 20
55.35831469814224
 10
152.0
 20
56.273799939011504
 10
155.3243798579426
 20
58.0
 10
158.0
 20
59.57668573673894
 10
160.0
 20
60.88296072965018
 10
162.0
 20
62.30192920977486
 10
164.1920634738348
 20
64.0
 10
166.53841766948594
 20
66.0
 10
168.67361159949718
 20
68.0
 10
170.62805387639708
 20
70.0
 10
172.42545711281662
 20
72.0
 10
174.08425238063114
 20
74.0
 10
176.0
 20
76.52586526577349
 10
178.0
 20
79.43529070900176
 10
179.60417863891675
 20
82.0
 10
180.75515647764777
 20
84.0
 10
182.0
 20
86.34821078183062
 10
183.761351900053
 20
90.0
 10
184.6359844964537
 20
92.0
 10
186.0
 20
95.46183485098628
 10
186.91795725501902
 20
98.0
 10
188.0
 20
101.41387251438177
 10
188.7528674868527
 20
104.0
 10
189.7481321438818
 20
108.0
 10
190.1821389317142
 20
110.0
 10
190.92800787626484
 20
114.0
 10
191.4785787377061
 20
118.0
 10
191.8114150155688
 20
122.0
 10
191.88156159711286
 20
126.0
 10
191.60828341918597
 20
130.0
 10
190.849839964219
 20
134.0
 10
190.0
 20
136.53167092760955
 10
188.3770287368648
 20
140.0
 10
187.1156275206502
 20
142.0
 10
185.58286184228146
 20
144.0
 10
183.79027593991717
 20
146.0
 10
181.74529346989814
 20
148.0
 10
179.4504807215701
 20
150.0
 10
176.90275620598158
 20
152.0
 10
174.09247434019088
 20
154.0
 10
172.0
 20
155.38359461227856
 10
170.0
 20
156.63999994318615
 10
167.71751012334812
 20
158.0
 10
164.06957967706953
 20
160.0
 10
162.0
 20
161.04896227708988
 10
160.0
 20
162.0117401054112
 10
156.0
 20
163.76917439378153
 10
154.0
 20
164.56704574328253
 10
150.00184447288964
 20
166.0
 10
148.0
 20
166.6355042685965
 10
144.0
 20
167.73939603788017
 10
142.0
 20
168.20798486149926
  0
LWPOLYLINE
  5
42
330
17
100
AcDbEntity
  8
등고선-주곡선
100
AcDbPolyline
 90
78
 70
0
 38
26.0
 10
266.0
 20
204.17582109043917
 10
262.0
 20
204.31238066857802
 10
258.0
 20
204.0276535847906
 10
256.0
 20
203.7247892004537
 10
252.0
 20
202.79943912242086
 10
249.51771678479673
 20
202.0
 10
246.0
 20
200.57274731503543
 10
244.0
 20
199.58978079476168
 10
241.2223420841952
 20
198.0
 10
238.24409877500113
 20
196.0
 10
236.0
 20
194.2555469422967
 10
234.0
 20
192.50811418384512
 10
232.0
 20
190.56378699151702
 10
230.0
 20
188.39597444601975
 10
228.0212607286871
 20
186.0
 10
226.54089609177825
 20
184.0
 10
225.18930497967835
 20
182.0
 10
223.95808914398717
 20
180.0
 10
222.0
 20
176.35398138113544
 10
220.89338363834884
 20
174.0
 10
220.0
 20
171.7925459748572
 10
218.7050661531394
 20
168.0
 10
218.0
 20
165.1441748357225
 10
217.4268834070111
 20
162.0
 10
217.1848813211894
 20
158.0
 10
217.59922453513772
 20
154.0
 10
218.12387817712425
 20
152.0
 10
219.98205163234158
 20
148.0
 10
221.40455816419262
 20
146.0
 10
223.25470288305854
 20
144.0
 10
225.59629552807303
 20
142.0
 10
228.0
 20
140.33374876456463
 10
230.0
 20
139.14445641345046
 10
232.1745417785598
 20
138.0
 10
236.0
 20
136.33718776249472
 10
238.0
 20
135.60617248031306
 10
242.0
 20
134.39752837881147
 10
244.0
 20
133.90869399424358
 10
248.0
 20
133.16162863663055
 10
252.0
 20
132.70286062754283
 10
256.0
 20
132.53608835224912
 10
260.0
 20
132.67068604842012
 10
264.0
 20
133.12209583291954
 10
268.0
 20
133.91258840345554
 10
270.0
 20
134.44955189384396
 10
274.0
 20
135.82444975653956
 10
276.0
 20
136.68465241151307
 10
278.6131726810598
 20
138.0
 10
281.9039440002997
 20
140.0
 10
284.0
 20
141.52696289129534
 10
286.0
 20
143.19746985048178
 10
288.0
 20
145.11962770339306
 10
290.0
 20
147.35952423185765
 10
291.9902571748029
 20
150.0
 10
293.2555563326068
 20
152.0
 10
294.35249243554154
 20
154.0
 10
296.0
 20
157.7921603698049
 10
296.73270254148406
 20
160.0
 10
297.6560434986678
 20
164.0
 10
298.0
 20
166.8047241530991
 10
298.13925900763655
 20
170.0
 10
298.0
 20
172.6981249565496
 10
297.5642445910681
 20
176.0
 10
296.568221608581
 20
180.0
 10
295.8720125854719
 20
182.0
 10
294.03442875394626
 20
186.0
 10
292.8608210801741
 20
188.0
 10
291.49837729945847
 20
190.0
 10
289.9163945206605
 20
192.0
 10
288.0
 20
194.064311879249
 10
285.88058998750654
 20
196.0
 10
283.2470065602857
 20
198.0
 10
280.0
 20
199.9997155025839
 10
278.0
 20
200.99411242446214
 10
275.58592493855474
 20
202.0
 10
272.0
 20
203.13829061068856
 10
268.0
 20
203.9452851339851
 10
266.0
 20
204.17582109043917
  0
LWPOLYLINE
  5
43
330
17
100
AcDbEntity
  8
등고선-주곡선
100
AcDbPolyline
 90
113
 70
0
 38
28.0
 10
136.0
 20
164.28182152812997
 10
132.0
 20
164.79563667547384
 10
128.0
 20
165.0479326787204
 10
124.0
 20
165.03517828436503
 10
120.0
 20
164.75147069058556
 10
116.0
 20
164.18803875999282
 10
114.0
 20
163.7974885681527
 10
110.0
 20
162.78909037369453
 10
107.52277569039386
 20
162.0
 10
104.0
 20
160.66770925245177
 10
102.0
 20
159.78451959190355
 10
98.50561765837058
 20
158.0
 10
96.0
 20
156.52873333720237
 10
94.0
 20
155.2171527629378
 10
92.0
 20
153.77934290419518
 10
89.76534650066162
 20
152.0
 10
87.51146762252641
 20
150.0
 10
85.48304098326027
 20
148.0
 10
83.64824074355137
 20
146.0
 10
81.98205232404491
 20
144.0
 10
80.0
 20
141.32649842652106
 10
78.0
 20
138.25092453388754
 10
76.71523018081346
 20
136.0
 10
75.6857866452866
 20
134.0
 10
74.0
 20
130.18187176147254
 10
73.18689467700159
 20
128.0
 10
72.0
 20
124.14301834251744
 10
71.47152179008832
 20
122.0
 10
70.72709483680991
 20
118.0
 10
70.28431467451989
 20
114.0
 10
70.13738191788268
 20
110.0
 10
70.28437651934368
 20
106.0
 10
70.72722600827721
 20
102.0
 10
71.4717375475774
 20
98.0
 10
72.0
 20
95.85794130186972
 10
73.18729936684795
 20
92.0
 10
74.0
 20
89.81934809866607
 10
75.6865254869951
 20
86.0
 10
76.71615221103431
 20
84.0
 10
78.0
 20
81.75098122864772
 10
80.0
 20
78.6759193471606
 10
81.98436790728012
 20
76.0
 10
83.65129023292377
 20
74.0
 10
85.48711774825155
 20
72.0
 10
87.51701876454295
 20
70.0
 10
89.77306672680956
 20
68.0
 10
92.0
 20
66.22890055558078
 10
94.0
 20
64.792837928265
 10
96.0
 20
63.483366519418695
 10
98.53417568924903
 20
62.0
 10
102.0
 20
60.237159933329345
 10
104.0
 20
59.35837182784837
 10
107.62744495871347
 20
58.0
 10
110.0
 20
57.25648499867616
 10
114.0
 20
56.26817950738813
 10
116.0
 20
55.89046945874846
 10
120.0
 20
55.36047128765585
 10
124.0
 20
55.12348866213493
 10
128.0
 20
55.175636321716496
 10
132.0
 20
55.51753043458058
 10
135.13745295174436
 20
56.0
 10
138.0
 20
56.586791763637294
 10
142.0
 20
57.686755553833954
 10
144.0
 20
58.36002312961433
 10
148.0
 20
59.96660619184258
 10
150.0
 20
60.91090914640525
 10
152.088456472792
 20
62.0
 10
155.4443522636388
 20
64.0
 10
158.0
 20
65.73880585266868
 10
160.0
 20
67.25357567582364
 10
162.0
 20
68.91151119993125
 10
164.0
 20
70.72924960970077
 10
166.0
 20
72.72757014473818
 10
168.0
 20
74.93202537079597
 10
170.0
 20
77.3735867343679
 10
171.9366428554143
 20
80.0
 10
173.27227722632222
 20
82.0
 10
174.50361584135982
 20
84.0
 10
176.0
 20
86.68796471580656
 10
177.64690526450377
 20
90.0
 10
178.5328210824229
 20
92.0
 10
180.0
 20
95.7726039876158
 10
180.7630106270361
 20
98.0
 10
181.91900436606053
 20
102.0
 10
182.40865143837152
 20
104.0
 10
183.20270865477306
 20
108.0
 10
183.74607828895256
 20
112.0
 10
184.0
 20
115.45949762844162
 10
184.06989853778572
 20
118.0
 10
184.0
 20
120.54081766722165
 10
183.7099318880736
 20
124.0
 10
183.0021647456225
 20
128.0
 10
182.0
 20
131.4416611427687
 10
181.03191824550572
 20
134.0
 10
180.0
 20
136.14283131680006
 10
178.0
 20
139.51832343930576
 10
176.21039468443283
 20
142.0
 10
174.53700179761887
 20
144.0
 10
172.64569771840604
 20
146.0
 10
170.52416916578906
 20
148.0
 10
168.15399774159636
 20
150.0
 10
166.0
 20
151.64409654535436
 10
164.0
 20
153.05075648410366
 10
162.0
 20
154.358097906587
 10
159.25360779598103
 20
156.0
 10
156.0
 20
157.73719907604183
 10
154.0
 20
158.70264698660148
 10
151.0326479233921
 20
160.0
 10
148.0
 20
161.16957707246638
 10
145.53689162947268
 20
162.0
 10
142.0
 20
163.0218470030273
 10
138.0
 20
163.9272801767799
 10
136.0
 20
164.28182152812997
  0
LWPOLYLINE
  5
44
330
17
100
AcDbEntity
  8
등고선-주곡선
100
AcDbPolyline
 90
63
 70
0
 38
28.0
 10
264.0
 20
198.1165120784488
 10
260.0
 20
198.10498033511033
 10
258.0
 20
197.90846112239294
 10
254.0
 20
197.12435345283808
 10
250.47934350345182
 20
196.0
 10
248.0
 20
194.9475761363174
 10
246.0
 20
193.9365569195253
 10
242.88506605229995
 20
192.0
 10
240.22871215850247
 20
190.0
 10
238.0
 20
188.0104709195219
 10
236.06468615218782
 20
186.0
 10
234.39020881161406
 20
184.0
 10
232.92024697721067
 20
182.0
 10
231.62600761763125
 20
180.0
 10
230.0
 20
176.98549071946636
 10
228.68632034844416
 20
174.0
 10
227.98742547158997
 20
172.0
 10
227.005037878523
 20
168.0
 10
226.5908979544196
 20
164.0
 10
226.81199129845933
 20
160.0
 10
227.79104728153223
 20
156.0
 10
228.62305976724684
 20
154.0
 10
230.0
 20
151.5988415241672
 10
232.0
 20
149.02998408741072
 10
234.0
 20
147.0574463124238
 10
236.0
 20
145.4603200713232
 10
238.2158938984215
 20
144.0
 10
242.0
 20
142.0759960008494
 10
244.0
 20
141.29077928509759
 10
248.0
 20
140.0782526264417
 10
250.0
 20
139.65048752795315
 10
254.0
 20
139.10665821425746
 10
258.0
 20
138.96494845904758
 10
262.0
 20
139.2284219776054
 10
266.0
 20
139.91145749237668
 10
268.0
 20
140.43123839234653
 10
272.0
 20
141.83857339637507
 10
274.0
 20
142.76345160943615
 10
276.27027391388356
 20
144.0
 10
279.23404684196584
 20
146.0
 10
281.638417587601
 20
148.0
 10
283.6243265170976
 20
150.0
 10
285.28710990320184
 20
152.0
 10
286.69137827919883
 20
154.0
 10
288.0
 20
156.24285536634426
 10
289.6560162835535
 20
160.0
 10
290.2937686984711
 20
162.0
 10
291.10565687772714
 20
166.0
 10
291.3436850650088
 20
170.0
 10
291.01258560208174
 20
174.0
 10
290.0961965814672
 20
178.0
 10
289.3895791366816
 20
180.0
 10
288.0
 20
182.98142187502526
 10
286.1456263697656
 20
186.0
 10
284.57853716923967
 20
188.0
 10
282.69205180375224
 20
190.0
 10
280.3853928274305
 20
192.0
 10
278.0
 20
193.66703871321954
 10
276.0
 20
194.80652056370272
 10
273.39892285300033
 20
196.0
 10
270.0
 20
197.13617634740714
 10
266.0
 20
197.92889371480987
 10
264.0
 20
198.1165120784488
  0
LWPOLYLINE
  5
45
330
17
100
AcDbEntity
  8
등고선-계곡선
100
AcDbPolyline
 90
103
 70
0
 38
30.0
 10
130.0
 20
160.08288876259041
 10
126.0
 20
160.25708801000846
 10
122.0
 20
160.13561829051105
 10
120.0
 20
159.9617955215326
 10
116.0
 20
159.3791382816736
 10
112.0
 20
158.47498794370802
 10
110.0
 20
157.89626021367704
 10
106.0
 20
156.46258977795986
 10
104.0
 20
155.60102497415207
 10
100.80831488921822
 20
154.0
 10
98.0
 20
152.35993271699869
 10
96.0
 20
151.02887853182963
 10
94.0
 20
149.55744549719677
 10
92.0
 20
147.9271733529148
 10
89.88604098371741
 20
146.0
 10
87.92439875465399
 20
144.0
 10
86.0
 20
141.79691400964407
 10
84.0
 20
139.19469817397368
 10
82.0
 20
136.2020997877506
 10
80.72184139620931
 20
134.0
 10
79.68160102819182
 20
132.0
 10
78.0
 20
128.17530738466812
 10
77.20845572637862
 20
126.0
 10
76.0351996289002
 20
122.0
 10
75.58528954339961
 20
120.0
 10
74.93638828146821
 20
116.0
 10
74.61406162954101
 20
112.0
 10
74.6141141513748
 20
108.0
 10
74.93655234251607
 20
104.0
 10
75.58558488779572
 20
100.0
 10
76.03557828793039
 20
98.0
 10
77.20904078587823
 20
94.0
 10
78.0
 20
91.82649533189799
 10
79.68269810458042
 20
88.0
 10
80.72322639910563
 20
86.0
 10
82.0
 20
83.80070138584765
 10
84.0
 20
80.80884970943946
 10
86.0
 20
78.20750258757668
 10
87.92922811629941
 20
76.0
 10
89.8926217539381
 20
74.0
 10
92.0
 20
72.08090119531947
 10
94.0
 20
70.45233755780488
 10
96.0
 20
68.98294949696823
 10
98.0
 20
67.65435060493745
 10
100.84346167126226
 20
66.0
 10
104.0
 20
64.42458657489448
 10
106.0
 20
63.56808387328471
 10
110.0
 20
62.14854818147931
 10
112.0
 20
61.578424269407705
 10
116.0
 20
60.69780366453228
 10
120.0
 20
60.14820248257571
 10
122.0
 20
59.994604111888066
 10
126.0
 20
59.926986611681585
 10
128.0
 20
60.01170295772499
 10
132.0
 20
60.4221640160717
 10
136.0
 20
61.15821071228451
 10
139.20877716334863
 20
62.0
 10
142.0
 20
62.90718749234409
 10
144.768854967341
 20
64.0
 10
148.0
 20
65.50941039301044
 10
150.0
 20
66.59113830224959
 10
152.32810005611103
 20
68.0
 10
155.2199113690936
 20
70.0
 10
157.75297401695056
 20
72.0
 10
159.99675578453662
 20
74.0
 10
162.0
 20
75.99699655189666
 10
163.8103000956568
 20
78.0
 10
165.4480358714585
 20
80.0
 10
166.93803539487263
 20
82.0
 10
168.29647356678575
 20
84.0
 10
170.0
 20
86.82056724419458
 10
171.68440438461303
 20
90.0
 10
172.61490485999954
 20
92.0
 10
174.0
 20
95.43667423296888
 10
174.8894689705454
 20
98.0
 10
176.0
 20
101.9684910774935
 10
176.4580638035463
 20
104.0
 10
177.13457692848297
 20
108.0
 10
177.51246671298696
 20
112.0
 10
177.58052638961723
 20
116.0
 10
177.31445845467758
 20
120.0
 10
176.6736217207902
 20
124.0
 10
176.0
 20
126.66281938820218
 10
174.89427896040033
 20
130.0
 10
174.0
 20
132.0909423598651
 10
172.0
 20
135.8539421894759
 10
170.60993617607002
 20
138.0
 10
169.12115819135977
 20
140.0
 10
167.43465045031093
 20
142.0
 10
165.53257269817414
 20
144.0
 10
163.39008455845362
 20
146.0
 10
160.9733279433127
 20
148.0
 10
158.2365886429644
 20
150.0
 10
156.0
 20
151.45299685947103
 10
154.0
 20
152.63706099194198
 10
151.44819067886405
 20
154.0
 10
148.0
 20
155.60136094318213
 10
146.0
 20
156.41154766567124
 10
142.0
 20
157.787480912182
 10
140.0
 20
158.35700540426762
 10
136.0
 20
159.2685091057894
 10
132.0
 20
159.88526558852098
 10
130.0
 20
160.08288876259041
  0
LWPOLYLINE
  5
46
330
17
100
AcDbEntity
  8
등고선-계곡선
100
AcDbPolyline
 90
47
 70
0
 38
30.0
 10
268.0
 20
190.40540696766016
 10
264.0
 20
191.17242996867432
 10
260.0
 20
191.25222479318404
 10
256.0
 20
190.66982927506925
 10
253.61044148280067
 20
190.0
 10
250.0
 20
188.48750682137666
 10
248.0
 20
187.35792618074518
 10
245.98549096111452
 20
186.0
 10
243.61793723192972
 20
184.0
 10
241.68580814403052
 20
182.0
 10
240.0
 20
179.87408099905826
 10
238.0
 20
176.59258768567724
 10
236.81793380767317
 20
174.0
 10
236.0
 20
171.47195850355527
 10
235.34535811479682
 20
168.0
 10
235.32221957289104
 20
164.0
 10
236.0
 20
160.54808324794345
 10
236.96108217856002
 20
158.0
 10
238.05854820106953
 20
156.0
 10
240.0
 20
153.50112512527753
 10
242.0
 20
151.59359058054605
 10
244.1745616697103
 20
150.0
 10
248.0
 20
148.02288681063112
 10
250.0
 20
147.31549147581575
 10
254.0
 20
146.37718328907962
 10
258.0
 20
146.03847902296826
 10
262.0
 20
146.28421899349516
 10
266.0
 20
147.12073433176252
 10
268.57947658549216
 20
148.0
 10
272.0
 20
149.65102175941144
 10
274.0
 20
150.94370026733978
 10
276.0
 20
152.51904660438638
 10
278.0
 20
154.48800518508662
 10
280.0
 20
157.0395429474749
 10
281.72311677035646
 20
160.0
 10
282.5649276801951
 20
162.0
 10
283.6266049052348
 20
166.0
 10
283.924721580341
 20
170.0
 10
283.4605578746075
 20
174.0
 10
282.20733768801284
 20
178.0
 10
281.2178975215333
 20
180.0
 10
279.97468444289126
 20
182.0
 10
278.0
 20
184.38111250255463
 10
276.0
 20
186.24123593693244
 10
273.50076225441035
 20
188.0
 10
270.0
 20
189.7343522462244
 10
268.0
 20
190.40540696766016
  0
LWPOLYLINE
  5
47
330
17
100
AcDbEntity
  8
등고선-주곡선
100
AcDbPolyline
 90
92
 70
0
 38
32.0
 10
136.0
 20
154.1469088434487
 10
132.0
 20
154.8786894636036
 10
128.0
 20
155.2795495663873
 10
124.0
 20
155.34941492236158
 10
120.0
 20
155.08432957704744
 10
116.0
 20
154.47617519043453
 10
113.84889389920407
 20
154.0
 10
110.0
 20
152.87326385202957
 10
107.64841529116984
 20
152.0
 10
104.0
 20
150.3494921642719
 10
102.0
 20
149.2697729772169
 10
99.90236377259735
 20
148.0
 10
97.05767589461398
 20
146.0
 10
94.60027847624686
 20
144.0
 10
92.45483904099709
 20
142.0
 10
90.56491068739315
 20
140.0
 10
88.88790450305606
 20
138.0
 10
87.39158136567701
 20
136.0
 10
86.0
 20
133.9135551659633
 10
84.0
 20
130.35936936645047
 10
82.89103814992424
 20
128.0
 10
82.0
 20
125.80355589074696
 10
80.7672897058555
 20
122.0
 10
80.0
 20
118.73508453530552
 10
79.53995773226461
 20
116.0
 10
79.18449148486755
 20
112.0
 10
79.18458307768222
 20
108.0
 10
79.54024394413288
 20
104.0
 10
80.0
 20
101.26709126046809
 10
80.76796709723745
 20
98.0
 10
82.0
 20
94.19935145987978
 10
82.89237340407168
 20
92.0
 10
84.0
 20
89.64395900075539
 10
86.0
 20
86.09078881642375
 10
87.39499912605953
 20
84.0
 10
88.89241712636641
 20
82.0
 10
90.57096162117779
 20
80.0
 10
92.46312743147676
 20
78.0
 10
94.61193971079636
 20
76.0
 10
97.07460069010114
 20
74.0
 10
99.9277689092064
 20
72.0
 10
102.0
 20
70.750871905763
 10
104.0
 20
69.67521148831057
 10
107.73349160614711
 20
68.0
 10
110.0
 20
67.17023046954587
 10
114.0
 20
66.02296484214952
 10
116.0
 20
65.59861801824366
 10
120.0
 20
65.02283296172166
 10
124.0
 20
64.8027659359083
 10
128.0
 20
64.93467432593732
 10
132.0
 20
65.42024529690309
 10
134.8678272788722
 20
66.0
 10
138.0
 20
66.84227417796446
 10
141.28183259731648
 20
68.0
 10
144.0
 20
69.17044487742396
 10
146.0
 20
70.16862679590893
 10
149.1304951456676
 20
72.0
 10
152.0
 20
73.97157425035928
 10
154.0
 20
75.55678835087538
 10
156.0
 20
77.3275653672831
 10
158.0
 20
79.31417416170184
 10
160.0
 20
81.55561208212698
 10
161.92246618643634
 20
84.0
 10
163.3117100021598
 20
86.0
 10
164.56575131092183
 20
88.0
 10
166.0
 20
90.59814236455928
 10
167.60559083078914
 20
94.0
 10
168.40661082278183
 20
96.0
 10
169.7231372889681
 20
100.0
 10
170.2461202060674
 20
102.0
 10
171.03114955892525
 20
106.0
 10
171.47331232042563
 20
110.0
 10
171.5670376799184
 20
114.0
 10
171.29495405628202
 20
118.0
 10
170.62583745306893
 20
122.0
 10
170.0
 20
124.4231763360255
 10
168.7765229565671
 20
128.0
 10
167.90240858208134
 20
130.0
 10
166.0
 20
133.51621701512065
 10
164.36275257015924
 20
136.0
 10
162.82565429212292
 20
138.0
 10
161.07708231807982
 20
140.0
 10
159.0884034966429
 20
142.0
 10
156.82047894674952
 20
144.0
 10
154.2199806581407
 20
146.0
 10
152.0
 20
147.4929032502324
 10
150.0
 20
148.69827704771598
 10
147.57312139658964
 20
150.0
 10
144.0
 20
151.62370998856676
 10
142.0
 20
152.39231095186346
 10
138.0
 20
153.6500306124521
 10
136.0
 20
154.1469088434487
  0
LWPOLYLINE
  5
48
330
17
100
AcDbEntity
  8
등고선-주곡선
100
AcDbPolyline
 90
30
 70
0
 38
32.0
 10
264.0
 20
182.05973979061864
 10
260.0
 20
182.34652302732326
 10
257.6029461890693
 20
182.0
 10
254.0
 20
180.6938575781022
 10
252.0
 20
179.50077807568167
 10
250.0
 20
177.86323160802516
 10
248.0
 20
175.45490659398973
 10
246.22209693281698
 20
172.0
 10
245.68521015430557
 20
170.0
 10
245.5614896175913
 20
166.0
 10
246.0
 20
163.95103253847807
 10
248.0
 20
160.22146757109235
 10
250.0
 20
158.22211833972747
 10
252.0
 20
156.93088948436014
 10
254.0344683757259
 20
156.0
 10
258.0
 20
155.21275480188666
 10
262.0
 20
155.41960258469308
 10
264.30415070167186
 20
156.0
 10
268.0
 20
157.80307307347982
 10
270.0
 20
159.41350497991778
 10
272.0
 20
161.72649649617003
 10
273.2588800945886
 20
164.0
 10
274.0
 20
166.04220136923138
 10
274.3988449641191
 20
170.0
 10
274.0
 20
172.56571367646617
 10
272.5621844820272
 20
176.0
 10
271.05727582853825
 20
178.0
 10
268.74862755689674
 20
180.0
 10
266.0
 20
181.4372351909599
 10
264.0
 20
182.05973979061864
  0
LWPOLYLINE
  5
49
330
17
100
AcDbEntity
  8
등고선-주곡선
100
AcDbPolyline
 90
83
 70
0
 38
34.0
 10
128.0
 20
150.17244189748178
 10
124.0
 20
150.289518131001
 10
120.0
 20
150.0307070368304
 10
118.0
 20
149.75231724105245
 10
114.0
 20
148.8933779766793
 10
111.10016080689299
 20
148.0
 10
108.0
 20
146.78698124103636
 10
106.0
 20
145.84452245752905
 10
102.76037035452579
 20
144.0
 10
100.0
 20
142.11204623210827
 10
98.0
 20
140.50328280902554
 10
96.0
 20
138.67146956978544
 10
94.0
 20
136.56861778644682
 10
92.0
 20
134.12887934731538
 10
90.50659915575226
 20
132.0
 10
89.27660204253377
 20
130.0
 10
88.0
 20
127.6005905517764
 10
86.45052370828884
 20
124.0
 10
85.7614132541491
 20
122.0
 10
84.7323714348833
 20
118.0
 10
84.12017600728596
 20
114.0
 10
83.96867823129756
 20
112.0
 10
83.9688408805268
 20
108.0
 10
84.1205170126776
 20
106.0
 10
84.73310621702383
 20
102.0
 10
85.76264943029555
 20
98.0
 10
86.45213790706218
 20
96.0
 10
88.0
 20
92.40457509580892
 10
89.27988911236848
 20
90.0
 10
90.51091206277168
 20
88.0
 10
92.0
 20
85.87842903584614
 10
94.0
 20
83.44045265927294
 10
96.0
 20
81.33963202472293
 10
98.0
 20
79.51018631316511
 10
100.0
 20
77.90420497951823
 10
102.79530187729196
 20
76.0
 10
106.0
 20
74.18518260492854
 10
108.0
 20
73.24821332587011
 10
111.23709802253086
 20
72.0
 10
114.0
 20
71.16776337017512
 10
118.0
 20
70.33615189465995
 10
120.929095689797
 20
70.0
 10
124.0
 20
69.85755984596764
 10
127.5012745007475
 20
70.0
 10
130.0
 20
70.27669116562322
 10
134.0
 20
71.06588320769598
 10
137.17290769154
 20
72.0
 10
140.0
 20
73.06811004846898
 10
142.0599849998338
 20
74.0
 10
145.66753684497075
 20
76.0
 10
148.0
 20
77.55963382236419
 10
150.0
 20
79.09547572396387
 10
152.0
 20
80.83545942668447
 10
154.0
 20
82.81909575319895
 10
156.0
 20
85.09901477656601
 10
158.0
 20
87.74547298066355
 10
159.46287082686575
 20
90.0
 10
160.60226808343467
 20
92.0
 10
162.0
 20
94.87834681283637
 10
163.24987828503438
 20
98.0
 10
164.0
 20
100.33972642702113
 10
164.89607045102736
 20
104.0
 10
165.48767597665903
 20
108.0
 10
165.6828332467568
 20
112.0
 10
165.47076885557877
 20
116.0
 10
164.82792602439193
 20
120.0
 10
164.0
 20
123.08910370519149
 10
162.95934620723887
 20
126.0
 10
162.0
 20
128.1281612910446
 10
160.0
 20
131.66820395766825
 10
158.37830283324595
 20
134.0
 10
156.75082675563792
 20
136.0
 10
154.87807161456413
 20
138.0
 10
152.7136971797095
 20
140.0
 10
150.1933504182041
 20
142.0
 10
148.0
 20
143.4930913316615
 10
146.0
 20
144.69238128467686
 10
143.49224086708097
 20
146.0
 10
140.0
 20
147.49573587667842
 10
138.0
 20
148.19861237633893
 10
134.0
 20
149.27973912054898
 10
130.0
 20
149.97338109753022
 10
128.0
 20
150.17244189748178
  0
LWPOLYLINE
  5
4A
330
17
100
AcDbEntity
  8
등고선-주곡선
100
AcDbPolyline
 90
71
 70
0
 38
36.0
 10
132.0
 20
144.1112393875669
 10
128.0
 20
144.72674685277673
 10
124.0
 20
144.90370109144496
 10
120.0
 20
144.64078578007715
 10
116.33741691772599
 20
144.0
 10
114.0
 20
143.38116453886232
 10
110.20338045584916
 20
142.0
 10
108.0
 20
140.95447866502252
 10
106.0
 20
139.84870775131935
 10
103.24229654741289
 20
138.0
 10
100.77111972257123
 20
136.0
 10
98.6955206945321
 20
134.0
 10
96.92760994362405
 20
132.0
 10
95.4050650866128
 20
130.0
 10
94.0
 20
127.85135712904601
 10
92.00308587109934
 20
124.0
 10
91.20539323928122
 20
122.0
 10
90.0
 20
118.0417421933444
 10
89.58345758832053
 20
116.0
 10
89.12175203971269
 20
112.0
 10
89.12206728251765
 20
108.0
 10
89.58445142999292
 20
104.0
 10
90.0
 20
101.96358971170096
 10
91.20787587048238
 20
98.0
 10
92.00638125629783
 20
96.0
 10
94.0
 20
92.15795832052869
 10
95.41224513926626
 20
90.0
 10
96.93744845211941
 20
88.0
 10
98.70928459196489
 20
86.0
 10
100.79096309987494
 20
84.0
 10
103.27203343244311
 20
82.0
 10
106.0
 20
80.18042271741584
 10
108.0
 20
79.0798938030886
 10
110.30855850248483
 20
78.0
 10
114.0
 20
76.67898753082886
 10
116.70236471012053
 20
76.0
 10
120.0
 20
75.4606170863154
 10
124.0
 20
75.24064670447041
 10
128.0
 20
75.47581957070652
 10
131.16751800424927
 20
76.0
 10
134.0
 20
76.71541118151217
 10
137.57998691677204
 20
78.0
 10
140.0
 20
79.12870732530753
 10
142.0
 20
80.23035728190108
 10
144.67346390105618
 20
82.0
 10
147.18418841908255
 20
84.0
 10
149.30010266248456
 20
86.0
 10
151.11022705924032
 20
88.0
 10
152.67612216995923
 20
90.0
 10
154.04078152615241
 20
92.0
 10
156.0
 20
95.53998885695341
 10
157.0889444056684
 20
98.0
 10
158.0
 20
100.57207079573494
 10
158.90192628251665
 20
104.0
 10
159.50840531430626
 20
108.0
 10
159.65087221603392
 20
112.0
 10
159.3189877499698
 20
116.0
 10
158.48887130072805
 20
120.0
 10
157.87233542063524
 20
122.0
 10
156.17715881298548
 20
126.0
 10
155.06796114125095
 20
128.0
 10
153.7716973844156
 20
130.0
 10
152.0
 20
132.2905673774098
 10
150.0
 20
134.45647690127475
 10
148.0
 20
136.29694152624737
 10
145.82963066044155
 20
138.0
 10
142.72290146100687
 20
140.0
 10
140.0
 20
141.4205706763512
 10
138.0
 20
142.29073232846687
 10
134.0
 20
143.62411741874172
 10
132.0
 20
144.1112393875669
  0
LWPOLYLINE
  5
4B
330
17
100
AcDbEntity
  8
등고선-주곡선
100
AcDbPolyline
 90
59
 70
0
 38
38.0
 10
130.0
 20
138.37219816095464
 10
126.0
 20
138.89759212831314
 10
122.0
 20
138.88918994347765
 10
118.0
 20
138.34363996786854
 10
116.0
 20
137.8588734952579
 10
112.0
 20
136.40858832110231
 10
110.0
 20
135.42187354111425
 10
107.6375765832971
 20
134.0
 10
104.9982520637613
 20
132.0
 10
102.86713445068575
 20
130.0
 10
101.11068776519035
 20
128.0
 10
99.63974610371721
 20
126.0
 10
98.0
 20
123.20348407971713
 10
96.58241149729437
 20
120.0
 10
95.9138702513424
 20
118.0
 10
95.07121763438272
 20
114.0
 10
94.79185653290207
 20
110.0
 10
95.07257359037459
 20
106.0
 10
95.91682476149103
 20
102.0
 10
96.58662931824892
 20
100.0
 10
98.0
 20
96.80956146897275
 10
99.64964475397458
 20
94.0
 10
101.12464773300803
 20
92.0
 10
102.88725393850642
 20
90.0
 10
105.02828524448475
 20
88.0
 10
107.6846205181539
 20
86.0
 10
110.0
 20
84.61900610381143
 10
112.0
 20
83.63909474700844
 10
116.0
 20
82.21248668044997
 10
118.0
 20
81.73831212771701
 10
122.0
 20
81.22895121598006
 10
126.0
 20
81.26925286523984
 10
130.0
 20
81.85865083993636
 10
132.0
 20
82.38080839087283
 10
136.0
 20
83.88729738691488
 10
138.0
 20
84.92190340970664
 10
140.0
 20
86.13794813938829
 10
142.47689830140857
 20
88.0
 10
144.64566099932637
 20
90.0
 10
146.44569580605943
 20
92.0
 10
148.0
 20
94.06027720061452
 10
150.0
 20
97.45825462061782
 10
151.14445160261207
 20
100.0
 10
152.0
 20
102.49037806237268
 10
152.81046030761732
 20
106.0
 10
153.1940483389645
 20
110.0
 10
153.0144972972832
 20
114.0
 10
152.25401459986705
 20
118.0
 10
151.63063541990093
 20
120.0
 10
150.0
 20
123.709751680683
 10
148.63691664283556
 20
126.0
 10
147.17800436011692
 20
128.0
 10
145.42015750124588
 20
130.0
 10
143.27321240380803
 20
132.0
 10
140.59856083358468
 20
134.0
 10
138.0
 20
135.53647802030238
 10
136.0
 20
136.49120411381043
 10
132.0
 20
137.9030750670125
 10
130.0
 20
138.37219816095464
  0
LWPOLYLINE
  5
4C
330
17
100
AcDbEntity
  8
등고선-계곡선
100
AcDbPolyline
 90
44
 70
0
 38
40.0
 10
132.0
 20
130.3874254814083
 10
128.0
 20
131.54308866226847
 10
124.0
 20
131.95503080015644
 10
120.0
 20
131.62807539124054
 10
116.0
 20
130.55470880010142
 10
114.0
 20
129.70819102394387
 10
111.09458739157087
 20
128.0
 10
108.59950575298892
 20
126.0
 10
106.7056788968149
 20
124.0
 10
105.22031028844833
 20
122.0
 10
104.0
 20
119.93910005460813
 10
102.45965328131206
 20
116.0
 10
101.97452040892462
 20
114.0
 10
101.61742282085943
 20
110.0
 10
101.97782440095524
 20
106.0
 10
102.46532888346366
 20
104.0
 10
104.0
 20
100.0854786555351
 10
105.2367583305971
 20
98.0
 10
106.73039307520979
 20
96.0
 10
108.63787530308701
 20
94.0
 10
111.15779651966032
 20
92.0
 10
114.0
 20
90.35029415443333
 10
116.0
 20
89.51190125262187
 10
120.0
 20
88.47119397052144
 10
124.0
 20
88.1873977960032
 10
128.0
 20
88.65397038680655
 10
132.0
 20
89.87495901296792
 10
134.0
 20
90.84183457583258
 10
136.0
 20
92.03507079777566
 10
138.46763985932736
 20
94.0
 10
140.40832107155444
 20
96.0
 10
142.0
 20
98.08245207143258
 10
144.0
 20
101.78139655355999
 10
144.80088940301013
 20
104.0
 10
145.63553489951812
 20
108.0
 10
145.71241931258922
 20
112.0
 10
145.02043549997663
 20
116.0
 10
144.0
 20
118.89377309716986
 10
142.3439097617111
 20
122.0
 10
140.86055883061758
 20
124.0
 10
138.96862916575844
 20
126.0
 10
136.48508080923824
 20
128.0
 10
134.0
 20
129.4820196994523
 10
132.0
 20
130.3874254814083
  0
LWPOLYLINE
  5
4D
330
17
100
AcDbEntity
  8
등고선-주곡선
100
AcDbPolyline
 90
25
 70
0
 38
42.0
 10
124.0
 20
122.00819336764371
 10
122.0
 20
121.92239118313854
 10
118.0
 20
120.6740753436979
 10
116.0
 20
119.4022847609294
 10
114.0
 20
117.41087361248256
 10
112.08117950734916
 20
114.0
 10
111.58286183642534
 20
112.0
 10
111.59009554761322
 20
108.0
 10
112.09917809077676
 20
106.0
 10
114.0
 20
102.6472609079563
 10
116.0
 20
100.6664597141903
 10
118.0
 20
99.40248714065139
 10
122.0
 20
98.19857018514801
 10
126.0
 20
98.42853502491243
 10
129.8311287049469
 20
100.0
 10
132.0
 20
101.75723917310958
 10
133.7380863964768
 20
104.0
 10
134.68646009497334
 20
106.0
 10
135.44713919359899
 20
110.0
 10
134.8029414547441
 20
114.0
 10
133.93242143733573
 20
116.0
 10
132.0
 20
118.48789885461055
 10
130.0
 20
120.11830265369092
 10
126.0
 20
121.73946817773728
 10
124.0
 20
122.00819336764371
  0
POLYLINE
  5
4E
330
17
100
AcDbEntity
  8
도로중심
100
AcDb3dPolyline
 66
1
 10
0.0
 20
0.0
 30
0.0
 70
8
  0
VERTEX
  5
50
330
17
100
AcDbEntity
  8
도로중심
100
AcDbVertex
100
AcDb3dPolylineVertex
 10
0.0
 20
40.0
 30
2.0644018010117278
 70
32
  0
VERTEX
  5
51
330
17
100
AcDbEntity
  8
도로중심
100
AcDbVertex
100
AcDb3dPolylineVertex
 10
6.0
 20
45.423465565557855
 30
2.9660072254386414
 70
32
  0
VERTEX
  5
52
330
17
100
AcDbEntity
  8
도로중심
100
AcDbVertex
100
AcDb3dPolylineVertex
 10
12.0
 20
50.78793477858838
 30
4.0760799948603434
 70
32
  0
VERTEX
  5
53
330
17
100
AcDbEntity
  8
도로중심
100
AcDbVertex
100
AcDb3dPolylineVertex
 10
18.0
 20
56.03545855771626
 30
5.426226971533405
 70
32
  0
VERTEX
  5
54
330
17
100
AcDbEntity
  8
도로중심
100
AcDbVertex
100
AcDb3dPolylineVertex
 10
24.0
 20
61.11016377328253
 30
7.040081255618064
 70
32
  0
VERTEX
  5
55
330
17
100
AcDbEntity
  8
도로중심
100
AcDbVertex
100
AcDb3dPolylineVertex
 10
30.0
 20
65.95924507674343
 30
8.929357149722296
 70
32
  0
VERTEX
  5
56
330
17
100
AcDbEntity
  8
도로중심
100
AcDbVertex
100
AcDb3dPolylineVertex
 10
36.0
 20
70.53390227248806
 30
11.090926434047258
 70
32
  0
VERTEX
  5
57
330
17
100
AcDbEntity
  8
도로중심
100
AcDbVertex
100
AcDb3dPolylineVertex
 10
42.0
 20
74.79020659236028
 30
13.505449823424268
 70
32
  0
VERTEX
  5
58
330
17
100
AcDbEntity
  8
도로중심
100
AcDbVertex
100
AcDb3dPolylineVertex
 10
48.0
 20
78.68988049525063
 30
16.137738739834518
 70
32
  0
VERTEX
  5
59
330
17
100
AcDbEntity
  8
도로중심
100
AcDbVertex
100
AcDb3dPolylineVertex
 10
54.0
 20
82.20097714918066
 30
18.938629962481546
 70
32
  0
VERTEX
  5
5A
330
17
100
AcDbEntity
  8
도로중심
100
AcDbVertex
100
AcDb3dPolylineVertex
 10
60.0
 20
85.29844753408281
 30
21.84786571660069
 70
32
  0
VERTEX
  5
5B
330
17
100
AcDbEntity
  8
도로중심
100
AcDbVertex
100
AcDb3dPolylineVertex
 10
66.0
 20
87.9645850983764
 30
24.797371594685504
 70
32
  0
VERTEX
  5
5C
330
17
100
AcDbEntity
  8
도로중심
100
AcDbVertex
100
AcDb3dPolylineVertex
 10
72.0
 20
90.18934007603764
 30
27.71442203764536
 70
32
  0
VERTEX
  5
5D
330
17
100
AcDbEntity
  8
도로중심
100
AcDbVertex
100
AcDb3dPolylineVertex
 10
78.0
 20
91.97049788457826
 30
30.524414921230534
 70
32
  0
VERTEX
  5
5E
330
17
100
AcDbEntity
  8
도로중심
100
AcDbVertex
100
AcDb3dPolylineVertex
 10
84.0
 20
93.31371843710917
 30
33.153244929082064
 70
32
  0
VERTEX
  5
5F
330
17
100
AcDbEntity
  8
도로중심
100
AcDbVertex
100
AcDb3dPolylineVertex
 10
90.0
 20
94.23243567064205
 30
35.52947619897427
 70
32
  0
VERTEX
  5
60
330
17
100
AcDbEntity
  8
도로중심
100
AcDbVertex
100
AcDb3dPolylineVertex
 10
96.0
 20
94.74761907414864
 30
37.58660609133493
 70
32
  0
VERTEX
  5
61
330
17
100
AcDbEntity
  8
도로중심
100
AcDbVertex
100
AcDb3dPolylineVertex
 10
102.0
 20
94.88740144960136
 30
39.26566332869168
 70
32
  0
VERTEX
  5
62
330
17
100
AcDbEntity
  8
도로중심
100
AcDbVertex
100
AcDb3dPolylineVertex
 10
108.0
 20
94.68657951377877
 30
40.518214150771335
 70
32
  0
VERTEX
  5
63
330
17
100
AcDbEntity
  8
도로중심
100
AcDbVertex
100
AcDb3dPolylineVertex
 10
114.0
 20
94.1859962058812
 30
41.30961008848131
 70
32
  0
VERTEX
  5
64
330
17
100
AcDbEntity
  8
도로중심
100
AcDbVertex
100
AcDb3dPolylineVertex
 10
120.0
 20
93.4318156658953
 30
41.62207179663303
 70
32
  0
VERTEX
  5
65
330
17
100
AcDbEntity
  8
도로중심
100
AcDbVertex
100
AcDb3dPolylineVertex
 10
126.0
 20
92.47470375389761
 30
41.457042336255356
 70
32
  0
VERTEX
  5
66
330
17
100
AcDbEntity
  8
도로중심
100
AcDbVertex
100
AcDb3dPolylineVertex
 10
132.0
 20
91.36892865727208
 30
40.83622371014294
 70
32
  0
VERTEX
  5
67
330
17
100
AcDbEntity
  8
도로중심
100
AcDbVertex
100
AcDb3dPolylineVertex
 10
138.0
 20
90.17139755137318
 30
39.800860129040466
 70
32
  0
VERTEX
  5
68
330
17
100
AcDbEntity
  8
도로중심
100
AcDbVertex
100
AcDb3dPolylineVertex
 10
144.0
 20
88.9406464143105
 30
38.40912740775571
 70
32
  0
VERTEX
  5
69
330
17
100
AcDbEntity
  8
도로중심
100
AcDbVertex
100
AcDb3dPolylineVertex
 10
150.0
 20
87.73580092811287
 30
36.73185695629297
 70
32
  0
VERTEX
  5
6A
330
17
100
AcDbEntity
  8
도로중심
100
AcDbVertex
100
AcDb3dPolylineVertex
 10
156.0
 20
86.6155269117894
 30
34.84716280533867
 70
32
  0
VERTEX
  5
6B
330
17
100
AcDbEntity
  8
도로중심
100
AcDbVertex
100
AcDb3dPolylineVertex
 10
162.0
 20
85.63698891762868
 30
32.834754861998
 70
32
  0
VERTEX
  5
6C
330
17
100
AcDbEntity
  8
도로중심
100
AcDbVertex
100
AcDb3dPolylineVertex
 10
168.0
 20
84.85483547716794
 30
30.770755759485972
 70
32
  0
VERTEX
  5
6D
330
17
100
AcDbEntity
  8
도로중심
100
AcDbVertex
100
AcDb3dPolylineVertex
 10
174.0
 20
84.32022901019374
 30
28.72369562106223
 70
32
  0
VERTEX
  5
6E
330
17
100
AcDbEntity
  8
도로중심
100
AcDbVertex
100
AcDb3dPolylineVertex
 10
180.0
 20
84.0799376173018
 30
26.752094351101064
 70
32
  0
VERTEX
  5
6F
330
17
100
AcDbEntity
  8
도로중심
100
AcDbVertex
100
AcDb3dPolylineVertex
 10
186.0
 20
84.1755048780202
 30
24.903735881614935
 70
32
  0
VERTEX
  5
70
330
17
100
AcDbEntity
  8
도로중심
100
AcDbVertex
100
AcDb3dPolylineVertex
 10
192.0
 20
84.64251239178829
 30
23.21646722087749
 70
32
  0
VERTEX
  5
71
330
17
100
AcDbEntity
  8
도로중심
100
AcDbVertex
100
AcDb3dPolylineVertex
 10
198.0
 20
85.50994815276209
 30
21.72015968360649
 70
32
  0
VERTEX
  5
72
330
17
100
AcDbEntity
  8
도로중심
100
AcDbVertex
100
AcDb3dPolylineVertex
 10
204.0
 20
86.7996919707136
 30
20.439353154186264
 70
32
  0
VERTEX
  5
73
330
17
100
AcDbEntity
  8
도로중심
100
AcDbVertex
100
AcDb3dPolylineVertex
 10
210.0
 20
88.52612707255179
 30
19.396037858724444
 70
32
  0
VERTEX
  5
74
330
17
100
AcDbEntity
  8
도로중심
100
AcDbVertex
100
AcDb3dPolylineVertex
 10
216.0
 20
90.69588477910398
 30
18.611970847260906
 70
32
  0
VERTEX
  5
75
330
17
100
AcDbEntity
  8
도로중심
100
AcDbVertex
100
AcDb3dPolylineVertex
 10
222.0
 20
93.30772678951641
 30
18.109848671127104
 70
32
  0
VERTEX
  5
76
330
17
100
AcDbEntity
  8
도로중심
100
AcDbVertex
100
AcDb3dPolylineVertex
 10
228.0
 20
96.35256716289732
 30
17.912578773705945
 70
32
  0
VERTEX
  5
77
330
17
100
AcDbEntity
  8
도로중심
100
AcDbVertex
100
AcDb3dPolylineVertex
 10
234.0
 20
99.81363360699616
 30
18.039895486685808
 70
32
  0
VERTEX
  5
78
330
17
100
AcDbEntity
  8
도로중심
100
AcDbVertex
100
AcDb3dPolylineVertex
 10
240.0
 20
103.6667652108105
 30
18.50181853765646
 70
32
  0
VERTEX
  5
79
330
17
100
AcDbEntity
  8
도로중심
100
AcDbVertex
100
AcDb3dPolylineVertex
 10
246.0
 20
107.88084133593284
 30
19.28915965070668
 70
32
  0
VERTEX
  5
7A
330
17
100
AcDbEntity
  8
도로중심
100
AcDbVertex
100
AcDb3dPolylineVertex
 10
252.0
 20
112.41833405319196
 30
20.362565069797355
 70
32
  0
VERTEX
  5
7B
330
17
100
AcDbEntity
  8
도로중심
100
AcDbVertex
100
AcDb3dPolylineVertex
 10
258.0
 20
117.23597431803374
 30
21.64325332670593
 70
32
  0
VERTEX
  5
7C
330
17
100
AcDbEntity
  8
도로중심
100
AcDbVertex
100
AcDb3dPolylineVertex
 10
264.0
 20
122.28552005905871
 30
23.009985988401734
 70
32
  0
VERTEX
  5
7D
330
17
100
AcDbEntity
  8
도로중심
100
AcDbVertex
100
AcDb3dPolylineVertex
 10
270.0
 20
127.51461254502685
 30
24.306784300544766
 70
32
  0
VERTEX
  5
7E
330
17
100
AcDbEntity
  8
도로중심
100
AcDbVertex
100
AcDb3dPolylineVertex
 10
276.0
 20
132.86770582856735
 30
25.36349094244298
 70
32
  0
VERTEX
  5
7F
330
17
100
AcDbEntity
  8
도로중심
100
AcDbVertex
100
AcDb3dPolylineVertex
 10
282.0
 20
138.28705276761596
 30
26.02653610254449
 70
32
  0
VERTEX
  5
80
330
17
100
AcDbEntity
  8
도로중심
100
AcDbVertex
100
AcDb3dPolylineVertex
 10
288.0
 20
143.71373012126236
 30
26.191953834615582
 70
32
  0
VERTEX
  5
81
330
17
100
AcDbEntity
  8
도로중심
100
AcDbVertex
100
AcDb3dPolylineVertex
 10
294.0
 20
149.0886845230644
 30
25.82975765932561
 70
32
  0
VERTEX
  5
82
330
17
100
AcDbEntity
  8
도로중심
100
AcDbVertex
100
AcDb3dPolylineVertex
 10
300.0
 20
154.3537807642805
 30
24.99058102982416
 70
32
  0
VERTEX
  5
83
330
17
100
AcDbEntity
  8
도로중심
100
AcDbVertex
100
AcDb3dPolylineVertex
 10
306.0
 20
159.4528337784652
 30
23.791843720275622
 70
32
  0
VERTEX
  5
84
330
17
100
AcDbEntity
  8
도로중심
100
AcDbVertex
100
AcDb3dPolylineVertex
 10
312.0
 20
164.3326060082006
 30
22.38855824826908
 70
32
  0
VERTEX
  5
85
330
17
100
AcDbEntity
  8
도로중심
100
AcDbVertex
100
AcDb3dPolylineVertex
 10
318.0
 20
168.94375244925055
 30
20.939153866532216
 70
32
  0
VERTEX
  5
86
330
17
100
AcDbEntity
  8
도로중심
100
AcDbVertex
100
AcDb3dPolylineVertex
 10
324.0
 20
173.2416965962288
 30
19.576964382130072
 70
32
  0
VERTEX
  5
87
330
17
100
AcDbEntity
  8
도로중심
100
AcDbVertex
100
AcDb3dPolylineVertex
 10
330.0
 20
177.18742174047014
 30
18.393946733055877
 70
32
  0
VERTEX
  5
88
330
17
100
AcDbEntity
  8
도로중심
100
AcDbVertex
100
AcDb3dPolylineVertex
 10
336.0
 20
180.7481635734146
 30
17.437574440488728
 70
32
  0
VERTEX
  5
89
330
17
100
AcDbEntity
  8
도로중심
100
AcDbVertex
100
AcDb3dPolylineVertex
 10
342.0
 20
183.89799180078714
 30
16.717535867909195
 70
32
  0
VERTEX
  5
8A
330
17
100
AcDbEntity
  8
도로중심
100
AcDbVertex
100
AcDb3dPolylineVertex
 10
348.0
 20
186.61827044307384
 30
16.217196367580698
 70
32
  0
VERTEX
  5
8B
330
17
100
AcDbEntity
  8
도로중심
100
AcDbVertex
100
AcDb3dPolylineVertex
 10
354.0
 20
188.8979886512907
 30
15.905414367154776
 70
32
  0
VERTEX
  5
8C
330
17
100
AcDbEntity
  8
도로중심
100
AcDbVertex
100
AcDb3dPolylineVertex
 10
360.0
 20
190.73395616558454
 30
15.74604867200311
 70
32
  0
SEQEND
  5
4F
330
4E
100
AcDbEntity
  8
도로중심
  0
POINT
  5
8D
330
17
100
AcDbEntity
  8
표고점
100
AcDbPoint
 10
120.0
 20
110.0
 30
42.815623836554536
  0
POINT
  5
8E
330
17
100
AcDbEntity
  8
표고점
100
AcDbPoint
 10
260.0
 20
170.0
 30
33.22108833240965
  0
POINT
  5
8F
330
17
100
AcDbEntity
  8
표고점
100
AcDbPoint
 10
60.0
 20
200.0
 30
7.894310630471914
  0
ENDSEC
  0
SECTION
  2
OBJECTS
  0
DICTIONARY
  5
A
330
0
100
AcDbDictionary
281
1
  3
ACAD_COLOR
350
B
  3
ACAD_GROUP
350
C
  3
ACAD_LAYOUT
350
D
  3
ACAD_MATERIAL
350
E
  3
ACAD_MLEADERSTYLE
350
F
  3
ACAD_MLINESTYLE
350
10
  3
ACAD_PLOTSETTINGS
350
11
  3
ACAD_PLOTSTYLENAME
350
12
  3
ACAD_SCALELIST
350
14
  3
ACAD_TABLESTYLE
350
15
  3
ACAD_VISUALSTYLE
350
16
  3
EZDXF_META
350
2D
  0
DICTIONARY
  5
B
330
A
100
AcDbDictionary
281
1
  0
DICTIONARY
  5
C
330
A
100
AcDbDictionary
281
1
  0
DICTIONARY
  5
D
330
A
100
AcDbDictionary
281
1
  3
Model
350
1A
  3
Layout1
350
1E
  0
DICTIONARY
  5
E
330
A
100
AcDbDictionary
281
1
  3
ByBlock
350
1F
  3
ByLayer
350
20
  3
Global
350
21
  0
DICTIONARY
  5
F
330
A
100
AcDbDictionary
281
1
  3
Standard
350
2C
  0
DICTIONARY
  5
10
330
A
100
AcDbDictionary
281
1
  3
Standard
350
22
  0
DICTIONARY
  5
11
330
A
100
AcDbDictionary
281
1
  0
ACDBDICTIONARYWDFLT
  5
12
330
A
100
AcDbDictionary
281
1
  3
Normal
350
13
100
AcDbDictionaryWithDefault
340
13
  0
ACDBPLACEHOLDER
  5
13
330
12
  0
DICTIONARY
  5
14
330
A
100
AcDbDictionary
281
1
  0
DICTIONARY
  5
15
330
A
100
AcDbDictionary
281
1
  0
DICTIONARY
  5
16
330
A
100
AcDbDictionary
281
1
  0
LAYOUT
  5
1A
330
D
100
AcDbPlotSettings
  1

  4
A3
  6

 40
7.5
 41
20.0
 42
7.5
 43
20.0
 44
420.0
 45
297.0
 46
0.0
 47
0.0
 48
0.0
 49
0.0
140
0.0
141
0.0
142
1.0
143
1.0
 70
1024
 72
1
 73
0
 74
5
  7

 75
16
 76
0
 77
2
 78
300
147
1.0
148
0.0
149
0.0
100
AcDbLayout
  1
Model
 70
1
 71
0
 10
0.0
 20
0.0
 11
420.0
 21
297.0
 12
0.0
 22
0.0
 32
0.0
 14
1e+20
 24
1e+20
 34
1e+20
 15
-1e+20
 25
-1e+20
 35
-1e+20
146
0.0
 13
0.0
 23
0.0
 33
0.0
 16
1.0
 26
0.0
 36
0.0
 17
0.0
 27
1.0
 37
0.0
 76
1
330
17
  0
LAYOUT
  5
1E
330
D
100
AcDbPlotSettings
  1

  4
A3
  6

 40
7.5
 41
20.0
 42
7.5
 43
20.0
 44
420.0
 45
297.0
 46
0.0
 47
0.0
 48
0.0
 49
0.0
140
0.0
141
0.0
142
1.0
143
1.0
 70
0
 72
1
 73
0
 74
5
  7

 75
16
 76
0
 77
2
 78
300
147
1.0
148
0.0
149
0.0
100
AcDbLayout
  1
Layout1
 70
1
 71
1
 10
0.0
 20
0.0
 11
420.0
 21
297.0
 12
0.0
 22
0.0
 32
0.0
 14
1e+20
 24
1e+20
 34
1e+20
 15
-1e+20
 25
-1e+20
 35
-1e+20
146
0.0
 13
0.0
 23
0.0
 33
0.0
 16
1.0
 26
0.0
 36
0.0
 17
0.0
 27
1.0
 37
0.0
 76
1
330
1B
  0
MATERIAL
  5
1F
102
{ACAD_REACTORS
330
E
102
}
330
E
100
AcDbMaterial
  1
ByBlock
  2

 70
0
 40
1.0
 71
1
 41
1.0
 91
-1023410177
 42
1.0
 72
1
  3

 73
1
 74
1
 75
1
 44
0.5
 73
0
 45
1.0
 46
1.0
 77
1
  4

 78
1
 79
1
170
1
 48
1.0
171
1
  6

172
1
173
1
174
1
140
1.0
141
1.0
175
1
  7

176
1
177
1
178
1
143
1.0
179
1
  8

270
1
271
1
272
1
145
1.0
146
1.0
273
1
  9

274
1
275
1
276
1
 42
1.0
 72
1
  3

 73
1
 74
1
 75
1
 94
63
  0
MATERIAL
  5
20
102
{ACAD_REACTORS
330
E
102
}
330
E
100
AcDbMaterial
  1
ByLayer
  2

 70
0
 40
1.0
 71
1
 41
1.0
 91
-1023410177
 42
1.0
 72
1
  3

 73
1
 74
1
 75
1
 44
0.5
 73
0
 45
1.0
 46
1.0
 77
1
  4

 78
1
 79
1
170
1
 48
1.0
171
1
  6

172
1
173
1
174
1
140
1.0
141
1.0
175
1
  7

176
1
177
1
178
1
143
1.0
179
1
  8

270
1
271
1
272
1
145
1.0
146
1.0
273
1
  9

274
1
275
1
276
1
 42
1.0
 72
1
  3

 73
1
 74
1
 75
1
 94
63
  0
MATERIAL
  5
21
102
{ACAD_REACTORS
330
E
102
}
330
E
100
AcDbMaterial
  1
Global
  2

 70
0
 40
1.0
 71
1
 41
1.0
 91
-1023410177
 42
1.0
 72
1
  3

 73
1
 74
1
 75
1
 44
0.5
 73
0
 45
1.0
 46
1.0
 77
1
  4

 78
1
 79
1
170
1
 48
1.0
171
1
  6

172
1
173
1
174
1
140
1.0
141
1.0
175
1
  7

176
1
177
1
178
1
143
1.0
179
1
  8

270
1
271
1
272
1
145
1.0
146
1.0
273
1
  9

274
1
275
1
276
1
 42
1.0
 72
1
  3

 73
1
 74
1
 75
1
 94
63
  0
MLINESTYLE
  5
22
102
{ACAD_REACTORS
330
10
102
}
330
10
100
AcDbMlineStyle
  2
Standard
 70
0
  3

 62
256
 51
90.0
 52
90.0
 71
2
 49
0.5
 62
256
  6
BYLAYER
 49
-0.5
 62
256
  6
BYLAYER
  0
MLEADERSTYLE
  5
2C
102
{ACAD_REACTORS
330
F
102
}
330
F
100
AcDbMLeaderStyle
179
2
170
2
171
1
172
0
 90
2
 40
0.0
 41
0.0
173
1
 91
-1056964608
 92
-2
290
1
 42
2.0
291
1
 43
8.0
  3
Standard
 44
4.0
300

342
29
174
1
175
1
176
0
178
1
 93
-1056964608
 45
4.0
292
0
297
0
 46
4.0
 94
-1056964608
 47
1.0
 49
1.0
140
1.0
294
1
141
0.0
177
0
142
1.0
295
0
296
0
143
3.75
271
0
272
9
273
9
  0
DICTIONARY
  5
2D
330
A
100
AcDbDictionary
280
1
281
1
  3
CREATED_BY_EZDXF
350
2E
  3
WRITTEN_BY_EZDXF
350
92
  0
DICTIONARYVAR
  5
2E
330
2D
100
DictionaryVariables
280
0
  1
1.4.4 @ 2026-09-25T16:09:30.541260+00:00
  0
DICTIONARYVAR
  5
92
330
2D
100
DictionaryVariables
280
0
  1
1.4.4 @ 2026-09-25T16:09:30.640288+00:00
  0
ENDSEC
  0
EOF
